<?xml version="1.0" standalone="no"?>
<!DOCTYPE svg PUBLIC "-//W3C//DTD SVG 20010904//EN"
 "http://www.w3.org/TR/2001/REC-SVG-20010904/DTD/svg10.dtd">
<svg version="1.0" xmlns="http://www.w3.org/2000/svg"
 width="480.000000pt" height="480.000000pt" viewBox="0 0 480.000000 480.000000"
 preserveAspectRatio="xMidYMid meet">
<metadata>
Created by potrace 1.14, written by Peter Selinger 2001-2017
</metadata>
<g transform="translate(0.000000,480.000000) scale(0.100000,-0.100000)"
fill="#000000" stroke="none">
<path d="M0 4129 c0 -696 0 -704 40 -691 13 5 13 3 1 -11 -7 -10 -19 -17 -27
-17 -9 0 -13 -14 -12 -45 0 -40 2 -44 17 -33 25 20 252 210 286 240 73 64 131
108 142 108 9 0 13 -23 15 -82 1 -78 2 -76 8 37 4 66 8 128 9 138 1 23 33 22
160 -4 89 -18 104 -19 114 -6 8 10 57 20 147 31 74 9 146 18 160 20 14 2 72
21 130 42 75 27 124 38 172 40 38 2 72 6 78 9 6 3 18 4 28 1 9 -3 50 -8 91
-11 40 -2 101 -11 135 -20 33 -8 95 -20 136 -25 81 -11 417 -86 459 -102 14
-5 69 -20 121 -33 103 -25 241 -75 267 -97 55 -45 96 -154 115 -303 10 -78 14
-92 18 -65 4 19 3 40 -2 46 -9 12 1 56 12 49 4 -2 11 -24 15 -47 5 -34 9 -39
14 -23 7 16 16 19 59 16 32 -1 52 2 52 8 0 6 8 11 17 11 35 0 -7 -24 -55 -32
-46 -7 -45 -7 10 -3 33 2 60 -1 64 -7 4 -6 9 -5 15 3 4 8 3 19 -3 26 -8 10 -6
13 10 13 11 0 22 4 24 10 2 5 32 13 68 17 62 6 64 6 50 -12 -14 -17 -13 -18 5
-11 27 11 119 21 183 19 40 -1 52 2 52 14 0 11 -7 14 -24 11 -29 -6 -51 5 -42
20 7 11 130 10 171 -1 11 -3 26 -6 33 -6 7 -1 11 -5 8 -10 -3 -4 5 -6 17 -4
12 3 55 -6 94 -20 58 -19 73 -21 77 -10 7 17 26 17 26 -1 0 -23 19 -29 36 -12
12 12 20 13 35 5 11 -6 37 -9 57 -8 21 2 43 0 50 -5 7 -4 23 1 38 13 29 23 54
27 70 11 7 -7 19 -8 36 -1 41 15 44 31 6 31 -25 0 -29 3 -18 10 8 5 48 9 88 8
51 -1 76 2 82 11 4 8 13 10 19 6 9 -5 9 -10 1 -20 -8 -9 -5 -14 12 -19 27 -7
90 -7 68 1 -8 2 -21 7 -29 9 -24 8 6 28 42 29 25 0 33 5 35 23 2 13 10 22 20
22 12 0 13 -3 5 -8 -18 -12 -4 -51 17 -49 10 1 16 5 14 9 -3 4 4 8 16 8 12 0
19 -4 16 -8 -3 -5 12 -6 32 -3 30 6 37 11 36 29 0 12 3 22 7 22 8 0 23 -31 21
-42 -1 -5 7 -8 18 -8 11 0 20 5 20 10 0 6 18 10 40 10 23 0 42 6 47 14 4 8 17
16 28 19 11 3 -6 5 -37 4 -49 -2 -58 1 -62 17 -5 19 -6 19 -24 3 -10 -9 -35
-18 -55 -19 -22 -2 -37 -8 -37 -15 0 -16 -16 -17 -25 -2 -4 5 -12 8 -18 6 -7
-2 -24 2 -38 10 -19 12 -36 13 -70 7 -65 -13 -149 -6 -149 12 0 14 17 19 54
15 10 0 25 4 33 11 8 7 38 10 69 9 49 -2 56 0 61 18 6 24 14 26 32 9 10 -10
15 -10 18 -1 2 7 10 10 16 8 28 -10 103 -12 113 -4 13 11 94 -10 94 -23 0 -13
75 -9 88 4 7 7 12 28 12 49 l0 36 -65 6 c-36 4 -80 4 -96 0 -21 -4 -34 -1 -40
8 -7 11 -11 11 -17 2 -6 -9 -17 -10 -38 -4 -17 5 -73 12 -124 16 -60 5 -99 13
-108 22 -10 9 -18 11 -25 4 -6 -6 -23 -4 -49 5 -22 8 -50 14 -62 14 -15 0 -17
3 -7 9 19 12 2 21 -82 38 -39 8 -84 21 -100 30 -16 8 -39 16 -51 17 -50 7
-108 28 -133 51 l-28 24 20 20 c45 45 49 52 34 62 -11 6 -11 11 -1 21 6 6 12
24 12 39 0 18 6 29 18 31 13 3 10 8 -15 21 -18 9 -41 17 -53 17 -26 0 -26 16
0 23 43 11 16 91 -46 135 -32 24 -41 36 -41 60 0 39 8 42 82 32 33 -4 50 -8
38 -9 -34 -2 -28 -18 11 -31 27 -9 39 -8 56 2 18 11 23 11 31 -4 14 -25 36
-22 45 4 l7 22 17 -22 c11 -13 24 -20 34 -16 9 3 16 1 16 -5 0 -6 19 -10 45
-9 35 0 48 5 60 25 15 22 15 27 -4 67 -21 42 -38 60 -99 104 -26 18 -36 20
-52 12 -13 -7 -26 -7 -38 -1 -24 13 -62 3 -86 -22 -19 -19 -19 -20 5 -37 l23
-18 -29 -4 c-17 -2 -40 3 -52 10 -15 9 -35 12 -57 8 -43 -8 -83 1 -90 21 -4
10 -1 13 13 8 11 -3 22 -1 26 5 3 5 26 10 51 10 71 0 115 33 57 42 -16 3 -32
7 -38 8 -5 2 -56 -2 -111 -9 -92 -12 -104 -11 -127 4 -17 11 -27 13 -32 5 -4
-6 -16 -8 -27 -4 -19 6 -19 5 -3 -20 10 -14 23 -26 31 -26 8 0 11 -7 8 -17 -5
-17 -5 -17 6 0 13 20 38 23 37 5 -1 -34 5 -47 23 -53 33 -10 24 -35 -12 -37
-18 -1 -55 -3 -83 -6 -56 -4 -293 -7 -368 -3 -38 2 -60 -4 -104 -29 -30 -17
-53 -25 -51 -18 3 7 -6 21 -19 31 -19 15 -21 22 -12 33 6 8 17 14 24 14 8 0
15 5 17 11 5 16 105 39 139 32 24 -4 28 -3 24 10 -7 17 37 43 91 53 19 3 37
10 39 15 3 4 -13 22 -35 40 -33 27 -38 34 -25 41 17 10 21 38 5 38 -5 0 -10 5
-10 10 0 6 30 10 70 10 70 0 83 7 55 30 -22 18 -18 30 9 30 13 0 27 7 30 15 4
12 14 14 43 9 21 -4 44 -11 51 -17 18 -14 59 6 67 35 4 13 19 33 34 45 27 22
49 22 119 1 34 -10 131 6 142 23 3 5 23 10 44 13 21 3 41 7 44 10 3 3 -875 6
-1951 6 l-1957 0 0 -671z m4080 121 c0 -5 -4 -10 -10 -10 -5 0 -10 5 -10 10 0
6 5 10 10 10 6 0 10 -4 10 -10z m-1043 -515 c7 -3 10 -10 8 -17 -5 -13 -62
-15 -143 -5 -36 4 -47 11 -38 26 6 9 141 5 173 -4z m-2587 1 c0 -3 -4 -8 -10
-11 -5 -3 -10 -1 -10 4 0 6 5 11 10 11 6 0 10 -2 10 -4z m2290 -91 c0 -8 -2
-15 -4 -15 -2 0 -6 7 -10 15 -3 8 -1 15 4 15 6 0 10 -7 10 -15z m1770 -39 c0
-2 -7 -6 -15 -10 -8 -3 -15 -1 -15 4 0 6 7 10 15 10 8 0 15 -2 15 -4z m-339
-135 c-7 -5 -10 -14 -7 -20 4 -6 0 -11 -9 -11 -13 0 -14 4 -5 20 6 11 16 20
23 20 8 0 8 -3 -2 -9z m-1337 -27 c25 -10 19 -29 -13 -41 -28 -10 -29 -9 -33
18 -5 30 10 37 46 23z m173 -110 c-3 -3 -12 -4 -19 -1 -8 3 -5 6 6 6 11 1 17
-2 13 -5z"/>
<path d="M4736 4784 c-10 -7 -23 -11 -29 -9 -7 3 -41 -4 -77 -13 l-65 -17 3
-36 c3 -35 2 -36 -29 -35 -30 1 -34 5 -42 39 -7 27 -14 37 -29 37 -13 0 -18
-5 -15 -14 3 -8 -1 -17 -9 -20 -8 -3 -14 -1 -14 4 0 19 -68 10 -111 -14 -24
-14 -47 -22 -51 -20 -5 3 -15 1 -22 -5 -9 -7 -23 -8 -42 -2 -57 18 -91 20
-118 5 -16 -8 -36 -14 -45 -14 -10 0 -25 -6 -35 -13 -16 -11 -15 -14 12 -34
17 -13 32 -35 36 -54 11 -56 82 -109 147 -109 16 0 29 -4 29 -10 0 -5 8 -10
18 -10 14 0 15 -2 2 -10 -12 -8 -9 -10 11 -10 27 0 85 -25 94 -40 3 -5 -2 -13
-11 -18 -9 -5 -18 -21 -19 -36 -3 -20 1 -26 16 -26 10 0 19 4 19 9 0 5 16 15
35 22 19 7 35 18 35 25 0 6 6 14 13 16 25 10 37 -4 37 -42 0 -33 -6 -44 -55
-86 -43 -38 -51 -50 -40 -57 8 -4 15 -15 15 -22 0 -11 11 -15 38 -15 52 0 82
10 82 26 0 17 -44 36 -64 28 -8 -3 -20 -3 -26 1 -23 14 27 34 96 38 80 6 104
14 104 33 0 12 3 12 14 2 8 -7 14 -15 14 -18 -1 -19 4 -30 13 -30 5 0 7 5 4
10 -4 7 11 9 45 6 28 -3 58 -2 66 1 12 4 14 51 14 278 l0 273 -23 0 c-13 0
-31 -6 -41 -14z"/>
<path d="M4015 4550 c3 -5 13 -10 21 -10 8 0 14 5 14 10 0 6 -9 10 -21 10 -11
0 -17 -4 -14 -10z"/>
<path d="M4265 4370 c-3 -5 1 -10 9 -10 9 0 16 5 16 10 0 6 -4 10 -9 10 -6 0
-13 -4 -16 -10z"/>
<path d="M4750 4210 c0 -5 -8 -10 -17 -10 -22 -1 -104 -39 -84 -40 11 0 9 -5
-5 -21 -18 -20 -18 -21 1 -35 10 -8 28 -14 39 -14 12 0 27 -4 35 -9 15 -10 8
-41 -10 -41 -6 0 -9 7 -5 15 3 9 0 15 -8 15 -8 0 -13 -8 -12 -17 1 -16 -8 -19
-101 -39 -14 -3 -23 -12 -23 -23 0 -23 17 -30 56 -25 28 4 28 4 5 -6 -13 -6
-32 -8 -42 -5 -11 4 -19 2 -19 -4 0 -18 117 -14 124 4 3 8 12 15 21 15 8 0 15
6 15 13 0 18 48 43 59 31 5 -5 11 -20 14 -34 2 -14 5 19 6 72 l1 97 -37 17
-36 18 26 9 c29 9 37 27 12 27 -8 0 -15 -4 -15 -10z"/>
<path d="M4350 4170 c0 -5 5 -10 11 -10 5 0 7 5 4 10 -3 6 -8 10 -11 10 -2 0
-4 -4 -4 -10z"/>
<path d="M4340 3936 c0 -9 5 -16 10 -16 6 0 10 4 10 9 0 6 -4 13 -10 16 -5 3
-10 -1 -10 -9z"/>
<path d="M4330 3890 c0 -5 7 -10 16 -10 8 0 12 5 9 10 -3 6 -10 10 -16 10 -5
0 -9 -4 -9 -10z"/>
<path d="M4416 3878 c-10 -32 -3 -48 18 -42 28 9 37 25 24 41 -13 17 -37 17
-42 1z"/>
<path d="M4635 3826 c-25 -12 -27 -15 -12 -21 9 -4 17 -15 17 -25 0 -14 -12
-19 -66 -24 -57 -6 -68 -4 -80 11 -13 17 -13 17 -14 1 0 -12 -8 -18 -22 -18
-19 0 -20 2 -8 10 13 8 13 10 -1 10 -26 0 -33 -31 -9 -37 11 -3 20 -10 20 -15
0 -6 -6 -8 -13 -5 -8 3 -20 2 -27 -3 -24 -15 -1 -26 49 -25 27 1 48 -1 46 -4
-2 -4 40 -7 92 -9 84 -2 94 0 83 13 -7 8 -19 15 -26 15 -8 0 -14 5 -14 10 0 6
-18 10 -40 10 -37 0 -56 16 -27 24 69 19 98 23 88 13 -17 -17 -13 -37 8 -37
10 0 25 -9 32 -19 8 -11 31 -23 52 -27 l37 -6 0 67 0 67 -34 -6 c-28 -5 -39
-2 -62 19 -31 29 -29 28 -69 11z m-75 -95 c0 -10 -35 -21 -65 -20 -15 0 -13 3
10 14 36 16 55 18 55 6z"/>
<path d="M4391 3814 c0 -11 3 -14 6 -6 3 7 2 16 -1 19 -3 4 -6 -2 -5 -13z"/>
<path d="M4417 3807 c-3 -9 6 -14 29 -15 38 -3 46 12 12 22 -32 8 -35 8 -41
-7z"/>
<path d="M1217 3793 c-92 -23 -231 -75 -252 -95 -11 -10 -26 -33 -33 -51 l-12
-32 5 38 c3 20 3 37 0 37 -19 0 -96 -49 -131 -84 -44 -44 -62 -83 -74 -161 -5
-27 -15 -75 -22 -107 -10 -35 -12 -62 -6 -72 5 -10 5 -16 0 -16 -10 0 -35 -54
-35 -76 0 -8 -4 -14 -9 -14 -4 0 -8 24 -8 53 0 91 20 362 30 417 11 59 7 71
-15 49 -21 -21 -33 -102 -47 -319 -6 -102 -13 -187 -14 -189 -2 -2 -17 8 -34
23 -38 31 -51 32 -68 6 -25 -41 -33 -22 -30 75 2 52 0 91 -3 87 -4 -4 -10
-268 -13 -587 -6 -585 -12 -774 -24 -787 -4 -4 -59 -18 -122 -32 -63 -14 -157
-35 -208 -46 l-92 -22 0 -369 1 -368 37 -9 c20 -5 95 -16 167 -25 72 -8 382
-51 690 -96 890 -128 1132 -161 1205 -165 38 -2 73 -7 79 -10 6 -4 27 -9 48
-12 21 -2 67 -9 102 -15 35 -5 66 -8 68 -5 3 3 16 1 29 -5 19 -7 26 -5 30 6 4
8 11 15 16 15 6 0 8 -7 4 -15 -3 -8 0 -15 7 -16 7 0 21 -2 32 -4 64 -13 165
-17 165 -6 0 6 5 11 11 11 6 0 8 -7 5 -16 -5 -13 -2 -15 16 -11 12 4 27 2 33
-3 11 -9 175 -34 182 -27 2 3 -3 12 -12 21 -9 9 -12 16 -6 16 5 0 13 -5 17
-11 3 -6 14 -9 24 -6 13 3 16 0 13 -14 -3 -11 0 -19 6 -19 6 0 10 6 9 12 -2 7
8 14 22 16 25 4 25 3 5 -13 -19 -16 -19 -16 8 -12 15 2 45 -1 65 -8 20 -7 57
-16 82 -18 25 -3 60 -9 78 -13 21 -4 32 -3 32 5 0 6 7 11 15 11 8 0 14 5 12
11 -1 6 4 14 12 17 8 2 11 0 7 -6 -3 -6 -2 -13 3 -17 5 -3 15 3 21 12 10 17
11 17 8 -2 -2 -11 -14 -22 -28 -26 l-25 -6 28 -8 c15 -4 43 -5 62 -2 19 3 35
1 37 -4 3 -10 163 -33 235 -34 22 0 40 -3 38 -6 -2 -3 56 -13 128 -23 201 -26
238 -30 294 -31 28 0 46 -3 40 -7 -7 -5 -3 -8 11 -8 15 0 21 4 16 12 -5 8 -2
9 10 5 10 -4 20 -7 22 -7 3 0 2 -5 -1 -10 -3 -6 3 -10 14 -10 10 0 27 -3 37
-7 13 -5 16 -3 11 10 -3 9 -2 17 3 17 6 0 10 -5 10 -10 0 -17 52 -33 60 -19 6
8 9 8 12 -1 3 -9 29 -13 84 -14 43 -1 81 -4 84 -7 9 -11 71 -19 65 -9 -4 6 9
10 32 9 30 0 34 -2 18 -9 -18 -7 -19 -8 -2 -15 9 -4 23 -5 31 -2 7 3 19 0 26
-6 10 -9 14 -9 17 1 3 6 9 12 14 12 6 0 7 -4 4 -10 -4 -6 8 -10 29 -10 32 0
36 3 36 27 0 21 -3 24 -12 15 -7 -7 -17 -12 -22 -12 -6 1 -1 9 12 20 22 18 23
24 21 179 0 111 -4 161 -12 165 -9 3 -8 5 1 5 9 1 12 31 12 116 l0 115 -77 1
c-43 0 -91 2 -108 4 -16 2 -102 6 -190 9 -88 4 -257 11 -375 16 -118 6 -366
17 -550 25 -528 24 -945 46 -950 52 -5 5 262 -3 420 -12 41 -3 138 -7 215 -10
77 -3 167 -8 200 -10 33 -2 132 -7 220 -10 88 -3 239 -10 335 -15 96 -5 254
-12 350 -16 96 -3 250 -9 343 -12 l167 -7 0 62 c0 53 -3 64 -21 73 -11 6 -18
17 -16 23 2 7 0 20 -5 30 -10 19 -5 21 21 8 14 -8 17 -4 19 26 2 19 -2 41 -9
49 -17 21 -46 17 -52 -8 -4 -12 -9 -19 -13 -15 -4 4 -13 2 -21 -4 -10 -9 -18
-8 -32 5 -19 17 -19 16 -11 -21 7 -31 6 -41 -9 -55 -21 -19 -33 -14 -23 10 5
14 3 15 -9 5 -16 -13 -59 -7 -59 8 0 15 21 21 34 10 9 -8 18 -6 32 5 10 8 13
13 7 9 -8 -3 -13 0 -13 8 0 7 -12 19 -26 25 -22 11 -25 10 -22 -6 1 -9 -7 -27
-20 -40 -24 -24 -42 -29 -42 -11 0 6 -7 9 -15 6 -17 -7 -30 9 -14 18 6 4 16 2
22 -4 12 -12 37 -15 37 -3 0 12 -64 28 -90 22 -24 -6 -24 -6 -5 -18 19 -11 19
-11 -5 -12 -14 0 -35 -3 -46 -6 -17 -4 -23 0 -28 20 -3 14 -11 26 -16 26 -5 0
-7 -7 -4 -15 4 -9 0 -15 -9 -15 -10 0 -13 8 -9 25 3 16 0 25 -8 25 -7 0 -10
-6 -7 -14 5 -11 -1 -13 -27 -9 -20 3 -36 1 -40 -6 -4 -6 -15 -11 -26 -11 -11
0 -20 -10 -24 -25 -4 -14 -10 -25 -15 -25 -5 0 -7 10 -3 22 4 18 2 20 -14 14
-15 -6 -17 -5 -6 5 15 16 16 33 1 23 -8 -4 -9 1 -4 17 4 15 3 19 -3 11 -5 -7
-16 -10 -25 -6 -16 6 -22 -5 -18 -30 1 -5 -9 -1 -24 8 -14 9 -25 12 -25 7 0
-6 8 -14 17 -19 26 -15 -5 -41 -43 -35 -22 3 -26 2 -14 -6 13 -9 12 -11 -5
-11 -11 0 -31 -3 -44 -7 -16 -4 -22 -3 -17 5 3 6 -4 18 -16 27 -15 12 -19 19
-10 22 20 8 14 23 -10 23 -17 0 -19 3 -10 12 18 18 14 31 -7 25 -10 -2 -24 -1
-31 3 -17 11 -38 -10 -33 -31 3 -9 0 -20 -7 -24 -7 -4 -10 -1 -8 10 4 25 -37
39 -53 18 -11 -13 -10 -17 4 -28 10 -7 14 -16 9 -19 -6 -3 -12 1 -16 9 -3 8
-11 15 -17 15 -8 0 -9 -4 0 -13 6 -8 8 -17 4 -20 -11 -12 -23 -8 -23 8 0 8 -8
15 -17 15 -15 0 -16 2 -3 10 8 5 10 10 5 10 -6 0 -22 -8 -35 -17 -21 -14 -23
-14 -12 -1 11 13 8 16 -18 21 -21 5 -28 11 -24 22 4 10 0 15 -11 15 -9 0 -13
-5 -10 -10 7 -11 -8 -28 -42 -47 -14 -8 -24 -9 -28 -3 -3 6 -1 10 5 10 6 0 9
4 5 10 -3 5 -12 7 -19 4 -8 -3 -28 2 -45 11 -18 9 -36 13 -40 10 -5 -3 -11 -1
-13 5 -2 6 -14 6 -33 1 -29 -9 -29 -9 -5 -11 26 -2 22 -5 -22 -14 -21 -5 -26
-10 -21 -24 6 -15 4 -15 -16 2 l-22 20 28 12 c15 7 24 13 18 14 -44 7 -225 15
-270 11 -18 -1 -19 -2 -2 -12 9 -5 17 -17 17 -25 0 -8 -4 -12 -10 -9 -5 3 -10
2 -10 -4 0 -5 5 -13 10 -16 6 -4 8 -11 5 -16 -4 -5 1 -19 9 -31 9 -12 16 -26
16 -29 0 -10 -91 -2 -124 11 -35 13 -36 13 -30 -5 5 -12 -1 -15 -27 -14 -19 1
-79 -1 -134 -4 -92 -5 -98 -4 -77 10 24 17 30 36 9 27 -8 -3 -20 2 -27 11 -7
8 -11 15 -9 15 47 5 86 14 94 22 6 6 -58 7 -185 4 -477 -13 -1168 -17 -1235
-7 -59 8 -75 15 -97 41 -16 17 -28 37 -28 45 0 8 -4 15 -8 15 -4 0 -8 12 -7
28 0 20 -5 27 -17 26 -10 -1 -18 4 -18 12 0 8 3 13 8 13 18 -3 20 3 11 31 -6
17 -18 30 -27 30 -15 0 -15 2 -2 10 8 5 49 10 91 10 55 0 77 4 76 13 -1 37 4
49 18 43 20 -8 42 -14 33 -9 -17 9 -7 21 17 21 20 0 24 -4 20 -18 -5 -15 1
-18 41 -18 36 -1 45 2 40 13 -3 8 -1 15 5 15 5 0 2 8 -8 19 -15 15 -26 17 -70
12 -31 -5 -53 -4 -53 2 0 5 -6 7 -14 4 -20 -8 -27 3 -16 23 12 22 52 16 43 -6
-4 -11 0 -12 18 -5 13 5 23 15 21 21 -2 9 17 11 73 8 41 -2 75 0 75 4 0 5 4 8
10 8 9 0 13 -17 24 -102 7 -53 -20 -52 -29 1 -5 32 -10 38 -26 34 -22 -6 -20
-28 2 -28 8 0 15 -10 17 -22 3 -22 1 -22 -115 -26 l-118 -3 129 -2 c121 -2
130 -3 158 -27 26 -22 39 -25 109 -25 78 0 81 -1 115 -35 19 -19 46 -38 61
-41 14 -4 127 -4 251 -2 l226 6 26 30 c23 27 34 32 95 38 46 4 77 13 90 25 15
13 40 19 95 22 l75 3 -78 2 -78 2 6 38 c14 86 9 81 72 76 61 -4 79 -14 70 -38
-5 -12 -17 -14 -57 -9 -42 5 -50 3 -50 -11 0 -19 4 -20 32 -5 15 8 19 8 14 0
-5 -7 4 -11 23 -11 21 0 31 -5 31 -15 0 -18 20 -20 21 -2 1 6 1 32 2 57 l0 45
-49 3 c-93 5 -92 4 -97 97 -2 29 0 30 38 30 36 0 65 13 65 29 0 3 -16 6 -35 6
-43 0 -43 -6 -10 235 14 99 25 183 25 188 0 4 -42 7 -93 7 -52 0 -96 3 -99 6
-8 8 11 76 26 91 6 7 47 15 91 18 76 4 77 4 23 -5 -32 -5 -67 -14 -78 -20 -20
-11 -45 -58 -36 -67 3 -3 43 -8 90 -10 l84 -6 12 42 c6 23 8 45 6 50 -3 5 1
11 9 15 8 3 18 24 21 46 5 29 10 38 17 31 15 -15 49 -14 71 2 15 11 18 30 18
131 1 75 -3 121 -11 129 -13 13 -15 31 -2 23 22 -14 41 7 41 46 0 51 -45 101
-87 96 -26 -3 -28 -7 -33 -56 -5 -48 -7 -52 -22 -40 -13 10 -17 31 -19 91 -2
70 0 80 19 93 30 20 29 68 0 88 -12 9 -38 18 -58 21 -155 25 -160 26 -160 51
0 16 -7 25 -22 29 -133 30 -128 30 -128 5 0 -13 -7 -20 -20 -20 -19 0 -424 70
-425 73 -15 48 -24 54 -100 66 -99 14 -95 15 -95 -15 0 -23 -3 -25 -27 -20
-16 3 -56 8 -90 11 -55 6 -63 10 -64 28 -1 18 -2 19 -6 4 -5 -20 -30 -17 -25
3 3 11 0 11 -12 0 -15 -11 -20 -7 -17 13 0 4 -3 7 -9 7 -5 0 -10 -4 -10 -10 0
-5 -5 -10 -11 -10 -5 0 -8 4 -5 9 6 10 -33 23 -46 15 -4 -3 -8 -12 -8 -20 0
-11 -13 -14 -60 -13 -40 1 -57 5 -52 13 13 22 10 36 -10 36 -16 0 -18 3 -9 13
6 8 8 17 4 20 -3 4 0 7 8 7 11 0 14 25 14 130 0 102 -2 130 -13 130 -7 0 -10
-4 -7 -10 3 -5 0 -10 -8 -10 -8 0 -18 7 -21 16 -8 22 -8 25 7 23 39 -5 42 6
19 63 -12 30 -23 31 -105 11z m70 -39 c-9 -9 -28 6 -21 18 4 6 10 6 17 -1 6
-6 8 -13 4 -17z m-7 -63 c0 -4 -35 -20 -77 -35 -43 -14 -100 -35 -127 -46 -27
-11 -51 -18 -53 -16 -5 5 80 44 167 77 84 31 90 33 90 20z m25 -263 c3 -3 -21
-13 -52 -22 -32 -10 -79 -26 -105 -37 -26 -10 -54 -19 -63 -19 -9 0 -14 -4
-11 -8 5 -9 -84 -36 -92 -28 -3 3 4 8 14 12 10 3 28 10 39 15 80 34 202 79
217 79 10 0 18 4 18 9 0 10 25 9 35 -1z m605 -101 c30 -10 35 -17 37 -46 l1
-34 -53 7 c-78 9 -85 13 -83 52 1 31 4 34 32 33 17 0 47 -5 66 -12z m-310 -33
c0 -2 -11 -4 -25 -4 -14 0 -25 4 -25 9 0 4 11 6 25 3 14 -2 25 -6 25 -8z
m-550 1 c0 -6 -56 -35 -67 -35 -4 0 6 9 22 20 29 19 45 25 45 15z m-160 -35
c0 -5 -4 -10 -9 -10 -5 0 -18 -3 -28 -6 -16 -6 -16 -5 2 9 23 19 35 21 35 7z
m-194 -57 c-11 -11 -19 6 -11 24 8 17 8 17 12 0 3 -10 2 -21 -1 -24z m239 27
c-3 -5 -14 -10 -23 -9 -14 0 -13 2 3 9 27 11 27 11 20 0z m-45 -4 c0 -3 -4 -8
-10 -11 -5 -3 -10 -1 -10 4 0 6 5 11 10 11 6 0 10 -2 10 -4z m1656 -17 c8 -6
14 -25 14 -41 0 -31 -4 -31 -97 -12 -28 5 -30 20 -3 27 11 3 20 11 20 19 0 10
-3 9 -10 -2 -6 -10 -10 -11 -10 -2 0 6 -7 12 -15 12 -8 0 -15 5 -15 11 0 15
96 5 116 -12z m-1823 -19 c3 -11 1 -18 -4 -14 -5 3 -9 1 -9 -5 0 -5 10 -12 23
-14 19 -4 18 -4 -5 -6 -30 -1 -31 1 -22 37 8 27 10 28 17 2z m351 -35 c3 -8 1
-15 -4 -15 -6 0 -10 7 -10 15 0 8 2 15 4 15 2 0 6 -7 10 -15z m464 8 c-10 -2
-28 -2 -40 0 -13 2 -5 4 17 4 22 1 32 -1 23 -4z m-838 -43 c0 -5 -7 -10 -15
-10 -8 0 -15 5 -15 10 0 6 7 10 15 10 8 0 15 -4 15 -10z m263 -57 c-7 -2 -21
-2 -30 0 -10 3 -4 5 12 5 17 0 24 -2 18 -5z m1679 -149 c14 -9 9 -54 -4 -49
-7 3 -20 1 -28 -5 -12 -7 -12 -12 -2 -22 19 -19 14 -38 -9 -38 -15 0 -19 -5
-15 -15 3 -9 0 -15 -10 -15 -8 0 -13 4 -10 9 3 5 -1 11 -9 14 -9 4 -12 1 -8
-9 3 -7 1 -14 -5 -14 -5 0 -12 -9 -15 -20 -5 -20 -5 -20 -30 2 -20 18 -24 31
-26 89 l-2 67 48 10 c44 9 107 7 125 -4z m205 -26 c-3 -8 -6 -5 -6 6 -1 11 2
17 5 13 3 -3 4 -12 1 -19z m-172 -117 c3 -5 1 -12 -5 -16 -5 -3 -10 1 -10 9 0
18 6 21 15 7z m-1878 -53 c-3 -7 -5 -2 -5 12 0 14 2 19 5 13 2 -7 2 -19 0 -25z
m1852 -5 c1 28 21 9 21 -19 0 -22 -3 -23 -20 -14 -11 6 -20 20 -19 33 0 21 1
21 9 2 8 -18 9 -18 9 -2z m-1099 3 c0 -3 -4 -8 -10 -11 -5 -3 -10 -1 -10 4 0
6 5 11 10 11 6 0 10 -2 10 -4z m200 -11 l65 -14 -90 5 c-149 9 -154 10 -161
17 -13 12 118 6 186 -8z m-385 -27 c17 -9 51 -34 77 -57 35 -31 54 -41 80 -41
42 0 193 -37 231 -57 33 -17 67 -68 67 -102 0 -23 -1 -23 -74 -16 -41 3 -102
12 -136 19 l-62 13 6 -31 c28 -138 60 -431 50 -448 -8 -12 -254 0 -271 14 -10
8 -59 9 -227 5 -29 -1 -43 5 -57 22 -11 13 -19 28 -19 35 0 6 7 3 14 -6 7 -10
23 -18 35 -18 21 0 22 3 16 42 -4 24 -17 49 -29 59 -20 17 -21 17 -30 -1 -8
-18 -9 -18 -37 2 -28 21 -33 21 -146 10 -92 -10 -118 -10 -124 0 -13 20 -3 25
83 37 189 28 228 37 228 57 0 16 -21 19 -35 5 -6 -6 -30 -13 -53 -17 l-44 -7
3 39 c3 35 7 40 39 49 l35 11 -4 59 c-3 62 -17 83 -56 85 -12 1 -15 4 -7 7 10
4 10 8 1 19 -9 11 -7 14 14 14 14 0 48 -5 75 -11 46 -11 51 -15 69 -58 26 -59
37 -118 24 -126 -6 -3 -10 -21 -9 -40 1 -26 4 -32 14 -25 6 6 10 19 7 29 -3
10 0 22 6 25 7 4 11 -1 11 -13 0 -26 12 -27 35 -1 10 11 23 20 30 20 37 0 58
67 55 172 -1 56 -1 56 32 63 29 7 30 9 13 16 -22 8 -13 12 24 9 15 -1 21 2 16
9 -3 6 -11 9 -16 6 -5 -4 -9 -1 -9 6 0 10 -3 10 -12 1 -19 -19 -44 -14 -45 8
-1 13 4 20 15 20 15 1 16 2 1 13 -9 7 -19 29 -23 49 -5 29 -3 39 10 46 19 11
66 2 109 -20z m-551 -28 c6 0 5 -4 -3 -9 -23 -15 -38 -2 -33 27 5 26 5 26 15
4 6 -12 15 -22 21 -22z m1639 23 c-7 -2 -21 -2 -30 0 -10 3 -4 5 12 5 17 0 24
-2 18 -5z m-825 -40 c-10 -2 -28 -2 -40 0 -13 2 -5 4 17 4 22 1 32 -1 23 -4z
m725 0 c-7 -2 -19 -2 -25 0 -7 3 -2 5 12 5 14 0 19 -2 13 -5z m-1529 -14 c4
-4 -10 -9 -31 -12 -39 -7 -56 -1 -35 12 14 8 58 9 66 0z m909 -19 c139 -16
360 -41 492 -55 132 -14 278 -30 325 -35 47 -5 94 -10 104 -10 11 0 17 -2 14
-6 -3 -3 -104 4 -224 16 -121 11 -271 25 -334 31 -63 5 -146 14 -185 19 -115
16 -407 41 -419 37 -7 -3 -23 4 -37 14 -32 25 -37 25 264 -11z m-5 23 c-10 -2
-28 -2 -40 0 -13 2 -5 4 17 4 22 1 32 -1 23 -4z m-841 -9 c-3 -3 -12 -4 -19
-1 -8 3 -5 6 6 6 11 1 17 -2 13 -5z m66 -1 c-7 -2 -19 -2 -25 0 -7 3 -2 5 12
5 14 0 19 -2 13 -5z m1815 -29 c3 -19 -1 -20 -34 -15 -24 4 -39 13 -44 27 -7
19 -5 20 34 15 32 -5 42 -11 44 -27z m-835 19 c-7 -2 -19 -2 -25 0 -7 3 -2 5
12 5 14 0 19 -2 13 -5z m-713 -25 c0 -9 -20 -13 -67 -13 -99 -1 -249 -11 -261
-19 -17 -10 -133 -9 -144 2 -18 18 6 21 173 23 90 1 172 5 182 8 35 13 117 12
117 -1z m-509 -21 c-10 -9 -11 -8 -5 6 3 10 9 15 12 12 3 -3 0 -11 -7 -18z
m119 -37 c0 -5 -2 -10 -4 -10 -3 0 -8 5 -11 10 -3 6 -1 10 4 10 6 0 11 -4 11
-10z m47 4 c-3 -3 -12 -4 -19 -1 -8 3 -5 6 6 6 11 1 17 -2 13 -5z m-168 -89
c0 -22 -4 -48 -8 -58 -4 -10 -7 15 -6 57 0 41 3 67 7 58 4 -9 7 -35 7 -57z
m461 61 c0 -2 -7 -7 -16 -10 -8 -3 -12 -2 -9 4 6 10 25 14 25 6z m50 -88 c0
-51 -5 -100 -10 -108 -7 -10 -9 19 -7 92 1 60 5 108 10 108 4 0 7 -42 7 -92z
m-132 76 c-8 -7 -88 -8 -95 0 -4 3 18 6 47 6 29 0 51 -3 48 -6z m-197 -36 c-2
-18 -4 -84 -2 -145 2 -107 1 -113 -18 -113 -11 0 -46 -7 -77 -15 -65 -17 -78
-10 -69 35 3 14 6 78 7 143 3 112 4 118 23 113 11 -2 40 -1 65 4 78 13 77 13
71 -22z m239 28 c0 -11 -19 -15 -25 -6 -3 5 1 10 9 10 9 0 16 -2 16 -4z m33
-49 c-7 -14 -7 -29 -2 -39 10 -19 1 -51 -12 -42 -5 3 -9 18 -9 33 0 15 -6 33
-12 40 -11 10 -9 12 7 9 16 -2 19 2 17 22 -3 20 -1 23 9 13 9 -9 10 -18 2 -36z
m1507 -37 c0 -5 -4 -10 -10 -10 -5 0 -10 5 -10 10 0 6 5 10 10 10 6 0 10 -4
10 -10z m-565 -21 c66 -5 125 -12 130 -15 20 -8 -193 8 -275 21 -88 15 -85 15
145 -6z m238 -26 c-13 -2 -35 -2 -50 0 -16 2 -5 4 22 4 28 0 40 -2 28 -4z
m167 -3 c0 -5 -7 -10 -16 -10 -8 0 -12 5 -9 10 3 6 10 10 16 10 5 0 9 -4 9
-10z m-77 -7 c-7 -2 -19 -2 -25 0 -7 3 -2 5 12 5 14 0 19 -2 13 -5z m-1733
-63 c0 -27 -4 -50 -9 -50 -4 0 -7 17 -6 38 3 54 4 62 10 62 3 0 5 -22 5 -50z
m1075 -3 c60 -22 105 -28 315 -42 298 -19 345 -25 180 -20 -257 8 -454 26
-525 46 -98 28 -97 28 -89 40 8 13 25 9 119 -24z m874 -46 c11 -7 11 -10 0
-17 -19 -11 -229 -18 -239 -8 -5 5 21 8 63 6 46 -2 86 2 112 12 49 18 47 18
64 7z m-880 -85 c47 -21 84 -26 231 -36 386 -25 522 -28 564 -14 44 16 76 18
76 5 0 -22 -129 -31 -306 -21 -408 22 -531 31 -559 40 -16 5 -56 14 -87 20
-32 6 -58 15 -58 19 0 18 86 10 139 -13z m-1069 10 c0 -2 -7 -6 -15 -10 -8 -3
-15 -1 -15 4 0 6 7 10 15 10 8 0 15 -2 15 -4z m5 -46 c-3 -5 -30 -10 -58 -9
-41 1 -47 3 -27 9 37 12 92 12 85 0z m102 -46 c-3 -3 -12 -4 -19 -1 -8 3 -5 6
6 6 11 1 17 -2 13 -5z m971 -53 c61 -20 244 -36 553 -47 151 -6 182 -4 228 11
53 17 94 14 73 -7 -18 -18 -183 -21 -486 -9 -227 9 -311 16 -383 33 -51 11
-90 25 -87 29 8 14 40 11 102 -10z m-832 -69 l14 -33 -29 23 c-15 13 -37 29
-47 35 -17 11 -15 13 14 10 28 -2 36 -8 48 -35z m-136 18 c-8 -5 -22 -9 -30
-9 -10 0 -8 3 5 9 27 12 43 12 25 0z m-46 -35 c-4 -8 -11 -15 -16 -15 -6 0 -5
6 2 15 7 8 14 15 16 15 2 0 1 -7 -2 -15z m533 9 c-3 -3 -12 -4 -19 -1 -8 3 -5
6 6 6 11 1 17 -2 13 -5z m173 -3 c20 -1 22 -3 10 -11 -12 -8 -9 -10 10 -6 75
14 99 16 105 6 3 -5 26 -10 51 -10 24 0 44 -3 44 -8 0 -4 18 -6 41 -4 32 3 43
0 55 -16 20 -29 42 -31 329 -41 235 -9 229 -9 -110 -4 -198 2 -367 6 -375 9
-13 3 -15 -3 -12 -31 l4 -35 -184 0 c-180 0 -186 1 -213 24 -32 28 -26 34 50
46 62 10 136 41 115 48 -8 3 -16 0 -18 -6 -2 -6 -10 -8 -17 -5 -11 4 -12 10
-5 23 10 19 37 27 75 24 11 -1 31 -3 45 -3z m1164 -89 c18 -10 -22 -22 -76
-22 -53 0 -76 11 -45 23 15 6 109 5 121 -1z m-166 -19 c-16 -2 -40 -2 -55 0
-16 2 -3 4 27 4 30 0 43 -2 28 -4z m-303 -12 l190 -7 -200 -1 c-110 0 -265 3
-345 7 l-145 6 155 1 c85 0 241 -3 345 -6z m318 -18 c-7 -2 -21 -2 -30 0 -10
3 -4 5 12 5 17 0 24 -2 18 -5z m-1135 -55 c3 -15 -5 -18 -52 -18 -46 0 -57 4
-66 20 -11 20 -9 21 52 18 50 -2 63 -6 66 -20z m427 -13 c40 -18 5 -19 -50 0
-38 12 -39 13 -10 14 17 0 44 -6 60 -14z m841 -4 c-3 -4 -25 -11 -48 -15 -24
-4 -54 -10 -68 -13 -37 -9 -14 10 28 23 45 14 95 17 88 5z m-1421 -41 c11 -5
14 -9 7 -9 -7 -1 -12 -9 -10 -18 5 -28 -47 -30 -62 -3 -6 11 -8 25 -5 30 7 12
42 12 70 0z m595 -60 c23 -7 22 -8 -10 -8 -19 0 -44 3 -55 8 -17 7 -15 9 10 8
17 0 41 -4 55 -8z m810 0 c0 -5 -8 -10 -19 -10 -10 0 -34 -2 -52 -5 l-34 -5
30 14 c35 17 75 20 75 6z m-1430 -35 c0 -12 -13 -15 -55 -15 -57 0 -76 16 -27
23 61 9 82 7 82 -8z m2050 -175 c0 -5 -7 -10 -16 -10 -8 0 -12 5 -9 10 3 6 10
10 16 10 5 0 9 -4 9 -10z m-2055 -20 c3 -5 1 -10 -4 -10 -6 0 -11 5 -11 10 0
6 2 10 4 10 3 0 8 -4 11 -10z m2137 -40 c-3 -18 0 -30 7 -30 6 0 11 -8 11 -17
0 -16 -2 -15 -19 2 -29 30 -36 62 -14 68 10 3 18 5 19 6 0 0 -1 -12 -4 -29z
m-102 -16 c22 -9 40 -20 40 -26 0 -5 -4 -6 -10 -3 -5 3 -10 -1 -10 -9 0 -19
-17 -21 -22 -4 -4 10 -10 10 -29 0 -13 -7 -16 -10 -6 -8 10 4 17 0 17 -9 0
-19 -14 -19 -33 0 -13 12 -13 21 -4 45 6 16 13 30 14 30 1 0 21 -7 43 -16z
m520 12 c0 -3 -4 -8 -10 -11 -5 -3 -10 -1 -10 4 0 6 5 11 10 11 6 0 10 -2 10
-4z m210 -16 c0 -5 -7 -10 -16 -10 -8 0 -12 5 -9 10 3 6 10 10 16 10 5 0 9 -4
9 -10z m-2305 -10 c4 -6 -9 -10 -32 -9 -38 1 -38 1 -8 9 17 4 31 8 32 9 1 0 5
-3 8 -9z m990 0 c3 -5 -1 -10 -9 -10 -9 0 -16 5 -16 10 0 6 4 10 9 10 6 0 13
-4 16 -10z m-932 -7 c-7 -2 -21 -2 -30 0 -10 3 -4 5 12 5 17 0 24 -2 18 -5z
m235 -14 c-2 -6 13 -18 32 -25 32 -13 24 -13 -85 -9 -227 10 -315 17 -315 27
0 5 8 7 18 4 9 -3 91 -7 182 -10 91 -2 156 -2 145 1 l-20 6 20 8 c11 4 21 8
23 8 1 1 1 -4 0 -10z m740 -11 c-4 -31 -25 -34 -25 -3 0 15 5 25 14 25 9 0 13
-8 11 -22z m1637 12 c3 -5 1 -10 -4 -10 -6 0 -11 5 -11 10 0 6 2 10 4 10 3 0
8 -4 11 -10z m425 0 c0 -5 -5 -10 -11 -10 -5 0 -7 5 -4 10 3 6 8 10 11 10 2 0
4 -4 4 -10z m-2905 -60 c94 -6 212 -13 263 -16 50 -3 92 -10 92 -16 0 -6 -27
-7 -72 -4 -40 3 -154 11 -253 16 -260 15 -325 21 -325 32 0 7 24 8 63 4 34 -3
139 -10 232 -16z m2805 -167 c2 -2 -19 -3 -48 -1 -28 2 -52 7 -52 11 0 8 90
-1 100 -10z m-2210 -7 c0 -2 -7 -7 -16 -10 -8 -3 -12 -2 -9 4 6 10 25 14 25 6z
m141 -14 c17 -15 19 -21 9 -27 -9 -5 -11 -4 -6 3 4 7 1 12 -8 12 -9 0 -16 4
-16 9 0 5 -16 9 -36 9 -19 0 -38 3 -41 6 -16 16 77 4 98 -12z m67 12 c12 -4
22 -10 22 -15 0 -15 -57 -10 -70 6 -10 12 -9 15 6 15 11 0 29 -3 42 -6z m212
-19 c0 -6 -25 -9 -62 -7 -89 5 -97 6 -93 12 6 10 155 5 155 -5z m75 5 c3 -5 2
-10 -4 -10 -5 0 -13 5 -16 10 -3 6 -2 10 4 10 5 0 13 -4 16 -10z m260 -40 c3
-5 1 -10 -4 -10 -6 0 -11 5 -11 10 0 6 2 10 4 10 3 0 8 -4 11 -10z m105 0 c0
-5 -10 -10 -22 -10 -19 0 -20 2 -8 10 19 13 30 13 30 0z m94 -2 c-5 -8 3 -9
29 -5 21 3 37 2 37 -4 0 -5 -9 -9 -21 -9 -13 0 -18 -4 -13 -12 5 -7 2 -9 -8
-5 -9 3 -21 0 -27 -6 -20 -20 -33 14 -14 35 18 20 28 24 17 6z m-254 -2 c0 -9
-50 -12 -62 -5 -8 6 1 9 25 9 20 0 37 -2 37 -4z m196 -24 c-3 -5 -16 -12 -28
-15 -22 -6 -22 -6 2 13 25 19 37 20 26 2z m214 8 c0 -5 -2 -10 -4 -10 -3 0 -8
5 -11 10 -3 6 -1 10 4 10 6 0 11 -4 11 -10z m477 4 c-3 -3 -12 -4 -19 -1 -8 3
-5 6 6 6 11 1 17 -2 13 -5z m-1244 -11 c-7 -2 -19 -2 -25 0 -7 3 -2 5 12 5 14
0 19 -2 13 -5z m244 1 c-3 -3 -12 -4 -19 -1 -8 3 -5 6 6 6 11 1 17 -2 13 -5z
m765 -1 c-10 -4 -9 -8 4 -17 9 -7 14 -18 10 -24 -9 -15 -36 -16 -36 -1 0 6 7
9 15 5 8 -3 15 -1 15 4 0 10 -21 14 -47 11 -7 -1 -13 3 -13 9 0 6 4 9 8 6 4
-2 14 -1 22 5 8 5 20 8 25 8 6 0 4 -3 -3 -6z m105 -17 c-2 -6 -11 -12 -20 -14
-13 -3 -16 11 -8 35 1 1 8 0 16 -4 9 -3 14 -11 12 -17z m-970 8 c-3 -3 -12 -4
-19 -1 -8 3 -5 6 6 6 11 1 17 -2 13 -5z m722 -15 c-15 -9 -32 -2 -24 11 3 5
13 6 21 3 12 -4 13 -8 3 -14z m372 -9 c20 -11 26 -40 8 -40 -6 0 -9 7 -5 15 4
11 -1 15 -19 15 -14 0 -25 5 -25 10 0 13 16 13 41 0z m59 -16 c0 -8 -6 -11
-15 -8 -8 4 -15 12 -15 20 0 8 6 11 15 8 8 -4 15 -12 15 -20z m-766 1 c-7 -16
-24 -21 -24 -6 0 8 7 13 27 20 1 1 0 -6 -3 -14z m541 5 c3 -5 2 -10 -4 -10 -5
0 -13 5 -16 10 -3 6 -2 10 4 10 5 0 13 -4 16 -10z m100 -11 c-4 -5 0 -9 7 -9
8 0 6 -5 -5 -11 -9 -6 -14 -15 -11 -21 4 -7 2 -8 -5 -4 -9 6 -9 11 1 23 11 14
10 15 -11 8 -22 -7 -23 -7 -4 12 18 19 39 21 28 2z m415 6 c0 -8 -2 -15 -4
-15 -2 0 -6 7 -10 15 -3 8 -1 15 4 15 6 0 10 -7 10 -15z m-925 -5 c3 -5 1 -10
-4 -10 -6 0 -11 5 -11 10 0 6 2 10 4 10 3 0 8 -4 11 -10z m700 0 c-3 -5 -10
-10 -16 -10 -5 0 -9 5 -9 10 0 6 7 10 16 10 8 0 12 -4 9 -10z m-255 -15 c0 -8
-4 -15 -10 -15 -5 0 -7 7 -4 15 4 8 8 15 10 15 2 0 4 -7 4 -15z m288 -5 c-7
-11 -16 -20 -19 -20 -4 0 -5 9 -2 20 3 11 12 20 19 20 12 0 12 -4 2 -20z m165
6 c24 -19 21 -24 -10 -19 -51 8 -59 13 -43 23 20 13 32 12 53 -4z m77 -6 c0
-11 -7 -20 -16 -20 -9 0 -12 -5 -8 -12 4 -7 3 -8 -4 -4 -17 10 -15 26 3 26 8
0 14 3 14 8 -2 12 1 22 6 22 3 0 5 -9 5 -20z m-889 -8 c-7 -2 -18 1 -23 6 -8
8 -4 9 13 5 13 -4 18 -8 10 -11z m249 14 c0 -11 -19 -15 -25 -6 -3 5 1 10 9
10 9 0 16 -2 16 -4z m869 -21 c11 -11 8 -14 -16 -19 -28 -7 -83 7 -83 20 0 3
12 3 27 -1 24 -6 25 -4 13 10 -12 15 -10 16 16 9 16 -3 35 -12 43 -19z m-544
5 c-3 -5 -14 -10 -23 -9 -14 0 -13 2 3 9 27 11 27 11 20 0z m355 0 c0 -5 -4
-10 -10 -10 -5 0 -9 -3 -9 -7 3 -17 -2 -24 -11 -18 -7 4 -7 13 0 26 11 20 30
26 30 9z m-600 -10 c0 -5 -7 -10 -15 -10 -8 0 -15 5 -15 10 0 6 7 10 15 10 8
0 15 -4 15 -10z m-1618 -12 c-9 -9 -15 -9 -24 0 -9 9 -7 12 12 12 19 0 21 -3
12 -12z m173 -10 c6 -4 2 -8 -7 -8 -10 0 -18 7 -18 17 0 9 3 12 8 7 4 -5 12
-12 17 -16z m38 7 c4 -8 2 -17 -3 -20 -6 -4 -10 3 -10 14 0 25 6 27 13 6z
m1274 9 c-3 -3 -12 -4 -19 -1 -8 3 -5 6 6 6 11 1 17 -2 13 -5z m170 -21 c-3
-3 -11 -2 -17 2 -9 6 -9 10 1 16 14 8 27 -7 16 -18z m-1617 7 c-20 -13 -33
-13 -25 0 3 6 14 10 23 10 15 0 15 -2 2 -10z m287 4 c-3 -3 -12 -4 -19 -1 -8
3 -5 6 6 6 11 1 17 -2 13 -5z m133 -26 c0 -5 -4 -8 -10 -8 -5 0 -10 10 -10 23
0 18 2 19 10 7 5 -8 10 -18 10 -22z m1790 22 c0 -5 -2 -10 -4 -10 -3 0 -8 5
-11 10 -3 6 -1 10 4 10 6 0 11 -4 11 -10z m-2140 -20 c8 -5 11 -10 5 -10 -5 0
-17 5 -25 10 -8 5 -10 10 -5 10 6 0 17 -5 25 -10z m210 3 c0 -5 -5 -15 -10
-23 -7 -12 -9 -10 -7 8 1 19 17 33 17 15z m1880 -13 c8 -5 11 -10 5 -10 -5 0
-17 5 -25 10 -8 5 -10 10 -5 10 6 0 17 -5 25 -10z m-1805 -10 c-3 -5 -12 -10
-18 -10 -7 0 -6 4 3 10 19 12 23 12 15 0z m1742 -5 c0 -8 -4 -12 -9 -9 -5 3
-6 10 -3 15 9 13 12 11 12 -6z m-1037 -5 c0 -5 -4 -10 -10 -10 -5 0 -10 5 -10
10 0 6 5 10 10 10 6 0 10 -4 10 -10z m1137 -6 c-3 -3 -12 -4 -19 -1 -8 3 -5 6
6 6 11 1 17 -2 13 -5z m-1657 -19 c-7 -8 -16 -15 -21 -15 -5 0 -6 7 -3 15 4 8
13 15 21 15 13 0 13 -3 3 -15z m155 5 c3 -5 2 -10 -4 -10 -5 0 -13 5 -16 10
-3 6 -2 10 4 10 5 0 13 -4 16 -10z m305 6 c0 -3 -4 -8 -10 -11 -5 -3 -10 -1
-10 4 0 6 5 11 10 11 6 0 10 -2 10 -4z m-390 -26 c0 -5 -5 -10 -11 -10 -5 0
-7 5 -4 10 3 6 8 10 11 10 2 0 4 -4 4 -10z m514 -6 c4 -10 1 -14 -6 -12 -15 5
-23 28 -10 28 5 0 13 -7 16 -16z m585 7 c8 -5 9 -11 3 -15 -5 -3 -15 1 -22 9
-14 16 -3 20 19 6z m91 -1 c0 -5 -2 -10 -4 -10 -3 0 -8 5 -11 10 -3 6 -1 10 4
10 6 0 11 -4 11 -10z m-420 -10 c0 -5 -4 -10 -10 -10 -5 0 -10 5 -10 10 0 6 5
10 10 10 6 0 10 -4 10 -10z m100 0 c0 -5 -4 -10 -9 -10 -6 0 -13 5 -16 10 -3
6 1 10 9 10 9 0 16 -4 16 -10z m-470 -37 c0 -14 -3 -23 -7 -19 -10 10 -11 46
-1 46 4 0 8 -12 8 -27z m525 9 c-3 -3 -11 0 -18 7 -9 10 -8 11 6 5 10 -3 15
-9 12 -12z m315 14 c0 -2 -7 -7 -16 -10 -8 -3 -12 -2 -9 4 6 10 25 14 25 6z
m-935 -24 c-3 -3 -11 0 -18 7 -9 10 -8 11 6 5 10 -3 15 -9 12 -12z m515 7 c13
-9 13 -10 -1 -6 -9 3 -22 1 -29 -3 -8 -5 -18 -6 -23 -3 -10 6 11 23 28 23 6 0
17 -5 25 -11z m275 2 c3 -5 2 -12 -3 -15 -5 -3 -9 1 -9 9 0 17 3 19 12 6z m80
-10 c3 -5 1 -12 -4 -15 -5 -3 -11 1 -15 9 -6 16 9 21 19 6z m-635 -17 c0 -8
-5 -12 -10 -9 -6 4 -8 11 -5 16 9 14 15 11 15 -7z m53 -4 c20 -24 6 -27 -17
-4 -18 17 -20 24 -8 24 4 0 15 -9 25 -20z m455 -17 c-6 -7 -17 -13 -24 -13 -8
0 -14 -5 -14 -11 0 -5 -4 -7 -10 -4 -5 3 -10 1 -10 -6 0 -7 -3 -9 -6 -6 -11
10 17 37 37 37 11 0 18 3 18 8 -1 4 -1 14 0 22 1 13 2 13 11 0 5 -9 5 -19 -2
-27z m-388 7 c0 -4 -9 -10 -19 -13 -14 -3 -19 0 -18 13 1 11 7 15 19 12 10 -2
18 -8 18 -12z m200 0 c0 -5 -4 -10 -10 -10 -5 0 -10 5 -10 10 0 6 5 10 10 10
6 0 10 -4 10 -10z m50 0 c0 -5 -4 -10 -9 -10 -6 0 -13 5 -16 10 -3 6 1 10 9
10 9 0 16 -4 16 -10z m40 -10 c-8 -5 -17 -7 -19 -4 -3 3 1 9 9 14 8 5 17 7 19
4 3 -3 -1 -9 -9 -14z m120 -5 c-7 -9 -15 -13 -18 -10 -3 2 1 11 8 20 7 9 15
13 18 10 3 -2 -1 -11 -8 -20z m-360 11 c0 -3 -4 -8 -10 -11 -5 -3 -10 -1 -10
4 0 6 5 11 10 11 6 0 10 -2 10 -4z m670 0 c0 -2 -7 -6 -15 -10 -8 -3 -15 -1
-15 4 0 6 7 10 15 10 8 0 15 -2 15 -4z m133 -3 c-7 -2 -19 -2 -25 0 -7 3 -2 5
12 5 14 0 19 -2 13 -5z m217 -13 c0 -5 -2 -10 -4 -10 -3 0 -8 5 -11 10 -3 6
-1 10 4 10 6 0 11 -4 11 -10z m-850 -4 c0 -3 -4 -8 -10 -11 -5 -3 -10 -1 -10
4 0 6 5 11 10 11 6 0 10 -2 10 -4z m240 -6 c0 -5 -4 -10 -9 -10 -6 0 -13 5
-16 10 -3 6 1 10 9 10 9 0 16 -4 16 -10z m50 -12 c0 -13 -23 -5 -28 10 -2 7 2
10 12 6 9 -3 16 -11 16 -16z m-265 2 c3 -5 1 -10 -4 -10 -6 0 -11 5 -11 10 0
6 2 10 4 10 3 0 8 -4 11 -10z m50 -11 c-3 -4 -12 -6 -20 -3 -8 4 -13 10 -10
15 3 4 12 6 20 3 8 -4 13 -10 10 -15z m665 17 c0 -3 -4 -8 -10 -11 -5 -3 -10
-1 -10 4 0 6 5 11 10 11 6 0 10 -2 10 -4z m-535 -16 c3 -5 -1 -10 -9 -10 -9 0
-16 5 -16 10 0 6 4 10 9 10 6 0 13 -4 16 -10z m570 0 c-3 -5 -14 -10 -23 -10
-15 0 -15 2 -2 10 20 13 33 13 25 0z m-165 -20 c0 -5 -2 -10 -4 -10 -3 0 -8 5
-11 10 -3 6 -1 10 4 10 6 0 11 -4 11 -10z m230 6 c0 -3 -4 -8 -10 -11 -5 -3
-10 -1 -10 4 0 6 5 11 10 11 6 0 10 -2 10 -4z m-385 -16 c3 -5 1 -10 -4 -10
-6 0 -11 5 -11 10 0 6 2 10 4 10 3 0 8 -4 11 -10z m100 0 c3 -5 1 -10 -4 -10
-6 0 -11 5 -11 10 0 6 2 10 4 10 3 0 8 -4 11 -10z m185 6 c0 -3 -4 -8 -10 -11
-5 -3 -10 -1 -10 4 0 6 5 11 10 11 6 0 10 -2 10 -4z m-215 -16 c-3 -5 -11 -10
-16 -10 -6 0 -7 5 -4 10 3 6 11 10 16 10 6 0 7 -4 4 -10z m65 -24 c0 -3 -4 -8
-10 -11 -5 -3 -10 -1 -10 4 0 6 5 11 10 11 6 0 10 -2 10 -4z m208 -8 c-2 -6
-10 -14 -16 -16 -7 -2 -10 2 -6 12 7 18 28 22 22 4z m-111 -4 c-3 -3 -12 -4
-19 -1 -8 3 -5 6 6 6 11 1 17 -2 13 -5z m158 -4 c3 -5 1 -10 -4 -10 -6 0 -11
5 -11 10 0 6 2 10 4 10 3 0 8 -4 11 -10z"/>
<path d="M1830 3326 c0 -2 7 -9 15 -16 9 -7 15 -8 15 -2 0 5 -7 12 -15 16 -8
3 -15 4 -15 2z"/>
<path d="M1915 3280 c-3 -5 -1 -10 4 -10 6 0 11 5 11 10 0 6 -2 10 -4 10 -3 0
-8 -4 -11 -10z"/>
<path d="M1501 2554 c2 -5 12 -30 22 -55 21 -53 26 -55 165 -66 74 -5 85 -4
79 9 -3 9 -1 20 4 25 18 18 -38 51 -112 68 -99 22 -162 30 -158 19z"/>
<path d="M975 2446 c17 -7 29 -16 28 -19 -2 -4 -1 -7 2 -7 3 0 7 0 10 0 3 0 1
9 -5 20 -7 13 -21 20 -38 20 l-27 -1 30 -13z"/>
<path d="M990 2365 c0 -8 4 -15 10 -15 5 0 7 7 4 15 -4 8 -8 15 -10 15 -2 0
-4 -7 -4 -15z"/>
<path d="M1188 2223 c-6 -16 -14 -57 -18 -93 l-7 -65 -3 50 -2 50 -8 -39 c-6
-34 1 -100 12 -112 3 -2 18 -7 35 -10 23 -5 32 -2 37 12 4 9 3 20 -2 23 -5 3
-12 47 -16 96 -9 133 -9 133 -28 88z"/>
<path d="M1395 2233 c-16 -15 -17 -31 -12 -122 6 -105 14 -124 47 -118 12 2
15 21 15 97 1 122 0 120 33 120 l27 1 -25 13 c-47 25 -67 27 -85 9z"/>
<path d="M876 2151 c-4 -5 1 -8 9 -7 21 3 31 16 12 16 -9 0 -18 -4 -21 -9z"/>
<path d="M818 2143 c6 -2 18 -2 25 0 6 3 1 5 -13 5 -14 0 -19 -2 -12 -5z"/>
<path d="M750 2130 c0 -5 4 -10 9 -10 6 0 13 5 16 10 3 6 -1 10 -9 10 -9 0
-16 -4 -16 -10z"/>
<path d="M4590 3780 c0 -5 9 -10 21 -10 11 0 17 5 14 10 -3 6 -13 10 -21 10
-8 0 -14 -4 -14 -10z"/>
<path d="M1518 3713 c6 -2 18 -2 25 0 6 3 1 5 -13 5 -14 0 -19 -2 -12 -5z"/>
<path d="M1620 3700 c14 -4 36 -8 50 -8 22 0 22 1 -5 8 -16 4 -39 8 -50 8 -16
0 -15 -2 5 -8z"/>
<path d="M545 3690 c-16 -6 -12 -8 18 -8 20 1 37 5 37 10 0 10 -29 9 -55 -2z"/>
<path d="M1768 3673 c6 -2 18 -2 25 0 6 3 1 5 -13 5 -14 0 -19 -2 -12 -5z"/>
<path d="M1823 3663 c9 -2 23 -2 30 0 6 3 -1 5 -18 5 -16 0 -22 -2 -12 -5z"/>
<path d="M1878 3653 c7 -3 16 -2 19 1 4 3 -2 6 -13 5 -11 0 -14 -3 -6 -6z"/>
<path d="M1988 3633 c7 -3 16 -2 19 1 4 3 -2 6 -13 5 -11 0 -14 -3 -6 -6z"/>
<path d="M2028 3623 c6 -2 18 -2 25 0 6 3 1 5 -13 5 -14 0 -19 -2 -12 -5z"/>
<path d="M2085 3613 c11 -3 92 -20 180 -39 132 -29 272 -63 455 -110 17 -5 22
-3 15 3 -19 20 -602 155 -653 152 -13 -1 -13 -2 3 -6z"/>
<path d="M461 3484 c0 -11 3 -14 6 -6 3 7 2 16 -1 19 -3 4 -6 -2 -5 -13z"/>
<path d="M4780 3450 c-13 -8 -12 -10 3 -10 9 0 17 5 17 10 0 12 -1 12 -20 0z"/>
<path d="M1460 3440 l-35 -7 38 -2 c20 0 37 4 37 9 0 6 -1 9 -2 9 -2 -1 -19
-5 -38 -9z"/>
<path d="M462 3410 c0 -19 2 -27 5 -17 2 9 2 25 0 35 -3 9 -5 1 -5 -18z"/>
<path d="M3920 3279 c0 -5 11 -9 25 -9 14 0 25 2 25 4 0 2 -11 6 -25 8 -14 3
-25 1 -25 -3z"/>
<path d="M3715 3270 c3 -5 8 -10 11 -10 2 0 4 5 4 10 0 6 -5 10 -11 10 -5 0
-7 -4 -4 -10z"/>
<path d="M3760 3270 c0 -5 9 -10 19 -10 11 0 23 5 26 10 4 6 -5 10 -19 10 -14
0 -26 -4 -26 -10z"/>
<path d="M3052 3251 c-11 -7 -10 -10 3 -15 20 -7 38 1 30 15 -7 11 -16 11 -33
0z"/>
<path d="M3400 3209 c0 -5 5 -7 10 -4 6 3 10 8 10 11 0 2 -4 4 -10 4 -5 0 -10
-5 -10 -11z"/>
<path d="M2800 2140 c-12 -6 -16 -32 -18 -109 -3 -96 -3 -101 17 -101 24 0 32
22 30 82 -1 25 1 50 5 56 4 7 0 15 -9 18 -14 6 -14 7 0 18 13 9 13 14 3 28 -9
12 -18 14 -28 8z"/>
<path d="M2770 1880 c0 -5 9 -10 20 -10 11 0 20 5 20 10 0 6 -9 10 -20 10 -11
0 -20 -4 -20 -10z"/>
<path d="M1540 1570 c-12 -8 -10 -10 10 -8 16 2 25 -3 28 -14 2 -13 -3 -18
-17 -18 -12 0 -21 -4 -21 -10 0 -16 26 -12 41 6 22 27 -11 64 -41 44z"/>
<path d="M1347 1563 c-16 -15 -7 -35 14 -30 16 4 18 3 9 -8 -18 -22 26 -26 46
-4 17 18 16 20 -2 34 -20 15 -56 20 -67 8z"/>
<path d="M2710 1530 c-9 -6 -10 -10 -3 -10 6 0 15 5 18 10 8 12 4 12 -15 0z"/>
<path d="M2933 1423 c9 -2 23 -2 30 0 6 3 -1 5 -18 5 -16 0 -22 -2 -12 -5z"/>
<path d="M2999 1410 c-12 -13 -14 -21 -6 -29 17 -17 26 -13 20 9 -6 22 22 29
30 8 2 -7 8 -10 12 -5 5 4 0 14 -11 22 -24 18 -25 18 -45 -5z"/>
<path d="M2826 1394 c-8 -31 4 -47 27 -38 21 8 22 31 3 50 -20 19 -23 18 -30
-12z"/>
<path d="M3645 1410 c-3 -5 -1 -10 4 -10 6 0 11 5 11 10 0 6 -2 10 -4 10 -3 0
-8 -4 -11 -10z"/>
<path d="M3746 1403 c-6 -14 -5 -15 5 -6 7 7 10 15 7 18 -3 3 -9 -2 -12 -12z"/>
<path d="M3940 1405 c0 -20 28 -31 43 -16 13 13 10 16 -20 25 -17 6 -23 3 -23
-9z"/>
<path d="M4172 1408 c6 -18 28 -21 28 -4 0 9 -7 16 -16 16 -9 0 -14 -5 -12
-12z"/>
<path d="M2906 1401 c-4 -7 -5 -15 -2 -18 9 -9 19 4 14 18 -4 11 -6 11 -12 0z"/>
<path d="M3495 1400 c3 -5 11 -10 16 -10 6 0 7 5 4 10 -3 6 -11 10 -16 10 -6
0 -7 -4 -4 -10z"/>
<path d="M4040 1400 c0 -13 11 -13 30 0 12 8 11 10 -7 10 -13 0 -23 -4 -23
-10z"/>
<path d="M4370 1403 c0 -2 6 -11 14 -18 12 -12 15 -12 19 -1 3 8 -2 16 -14 19
-10 3 -19 3 -19 0z"/>
<path d="M4495 1400 c-3 -5 -1 -10 4 -10 6 0 11 5 11 10 0 6 -2 10 -4 10 -3 0
-8 -4 -11 -10z"/>
<path d="M4688 1403 c7 -3 16 -2 19 1 4 3 -2 6 -13 5 -11 0 -14 -3 -6 -6z"/>
<path d="M4010 1390 c0 -5 5 -10 11 -10 5 0 7 5 4 10 -3 6 -8 10 -11 10 -2 0
-4 -4 -4 -10z"/>
<path d="M4530 1390 c-8 -5 -11 -12 -8 -16 10 -9 38 3 38 16 0 12 -10 13 -30
0z"/>
<path d="M3035 1360 c-4 -6 -10 -8 -14 -6 -4 3 -7 -7 -6 -22 0 -28 5 -30 43
-17 28 9 29 25 1 25 -15 0 -19 5 -15 15 6 17 0 20 -9 5z"/>
<path d="M2910 1347 c0 -8 10 -22 22 -33 20 -18 21 -18 15 -1 -4 10 -7 25 -7
33 0 8 -7 14 -15 14 -8 0 -15 -6 -15 -13z"/>
<path d="M2861 1347 c2 -1 12 -9 22 -16 15 -12 17 -12 11 3 -3 9 -13 16 -22
16 -8 0 -13 -1 -11 -3z"/>
<path d="M3067 1299 c7 -7 15 -10 18 -7 3 3 -2 9 -12 12 -14 6 -15 5 -6 -5z"/>
<path d="M0 973 c2 -150 3 -159 23 -171 l22 -13 -22 6 c-22 6 -23 4 -23 -48 0
-52 1 -55 23 -51 l22 5 -22 -10 c-21 -10 -23 -17 -23 -98 0 -95 7 -117 33
-107 10 4 19 0 23 -9 3 -8 18 -17 34 -21 23 -4 28 -9 23 -22 -5 -14 -2 -16 20
-10 20 5 35 0 57 -16 30 -21 30 -21 45 -2 17 22 20 12 5 -17 -10 -17 -7 -19
25 -19 24 0 35 -4 35 -15 0 -9 9 -15 24 -15 14 0 28 -5 31 -10 4 -6 11 -8 16
-5 5 4 16 -1 25 -9 9 -9 20 -14 25 -10 13 8 50 -6 44 -17 -4 -5 0 -9 8 -9 8 0
31 -11 51 -25 20 -14 54 -28 75 -31 21 -3 51 -17 66 -30 16 -13 36 -24 47 -24
10 0 18 -4 18 -10 0 -5 13 -10 28 -10 16 0 32 -3 36 -7 8 -8 13 -9 59 -11 21
-2 27 -7 25 -19 -2 -14 4 -18 30 -17 24 2 32 -2 32 -15 0 -14 8 -17 32 -16 19
1 45 -7 66 -22 19 -12 41 -23 48 -23 8 0 14 -4 14 -10 0 -5 16 -10 35 -10 21
0 35 5 35 13 0 9 2 9 9 -1 6 -10 38 -13 132 -11 137 2 184 11 198 37 5 9 13
14 17 9 4 -4 -1 -16 -11 -27 -18 -19 -17 -20 3 -20 14 0 22 6 22 18 0 22 59
47 74 32 7 -7 5 -10 -6 -10 -9 0 -18 -9 -21 -20 -4 -17 0 -20 24 -20 22 0 29
5 29 20 0 14 5 18 16 13 11 -4 15 -2 12 7 -5 17 19 48 47 61 16 7 13 8 -12 5
-40 -7 -43 1 -6 15 18 6 36 6 55 0 23 -8 28 -8 25 2 -2 6 -10 11 -16 9 -7 -1
-10 2 -6 8 4 7 12 7 25 0 10 -5 29 -10 42 -10 21 -1 22 -2 5 -14 -9 -7 -28
-12 -42 -11 -26 3 -30 -2 -17 -23 5 -7 16 -10 28 -6 18 6 18 6 -1 -9 -18 -14
-22 -14 -37 0 -15 13 -19 13 -42 -4 -31 -22 -34 -38 -5 -23 11 6 25 9 32 7 7
-2 1 -9 -13 -15 -80 -32 -79 -31 -28 -31 28 -1 49 4 52 12 5 9 7 9 12 0 7 -16
114 -18 114 -3 0 6 7 10 15 10 8 0 15 -4 15 -10 0 -16 57 -12 64 5 3 8 4 28 2
43 -2 15 -1 21 1 15 2 -7 9 -13 15 -13 5 0 7 -7 4 -15 -3 -8 -9 -22 -12 -30
-8 -20 39 -20 56 0 7 8 9 15 6 15 -4 0 0 10 8 22 20 28 20 38 1 38 -8 0 -15
-7 -15 -16 0 -28 -33 -10 -42 24 -9 33 -28 44 -28 16 0 -12 -4 -14 -12 -7 -23
18 -48 11 -48 -13 0 -12 -7 -24 -15 -28 -11 -4 -15 1 -15 18 0 14 -6 27 -12
29 -7 3 -4 6 7 6 13 1 21 8 21 20 0 15 -8 18 -51 19 -80 1 -85 3 -72 24 7 10
21 18 33 18 11 0 24 3 28 7 4 4 15 8 23 8 9 0 18 6 21 14 3 10 -2 11 -19 6
-16 -5 -21 -4 -14 3 13 13 60 23 68 15 4 -3 2 -12 -4 -19 -7 -8 -6 -14 2 -20
6 -4 16 0 21 10 5 9 14 16 20 16 7 0 6 -5 -2 -15 -7 -8 -9 -15 -6 -15 4 0 0
-10 -8 -22 -9 -12 -16 -29 -16 -37 0 -11 5 -8 16 7 8 12 25 22 37 23 21 0 21
1 2 8 -19 8 -19 8 3 15 13 4 26 5 29 2 4 -3 11 -2 17 3 13 11 39 -6 49 -31 7
-21 37 -13 37 9 0 7 6 13 12 12 29 -3 44 2 68 24 27 25 87 47 75 27 -3 -5 -13
-10 -21 -10 -8 0 -13 -4 -9 -10 3 -5 12 -7 20 -3 8 3 15 0 15 -6 0 -6 -7 -11
-16 -11 -11 0 -14 -6 -9 -21 10 -30 -16 -20 -32 12 -16 30 -18 3 -3 -35 7 -21
6 -26 -5 -26 -13 0 -19 11 -17 31 1 3 -12 6 -28 6 -25 0 -28 -3 -19 -19 7 -14
6 -18 -5 -18 -8 0 -16 5 -18 11 -2 7 -19 1 -42 -15 -32 -21 -35 -26 -17 -26
12 0 21 -6 21 -15 0 -8 5 -15 10 -15 6 0 10 -6 10 -14 0 -8 7 -22 16 -30 14
-14 12 -15 -14 -10 -20 4 -31 2 -34 -8 -4 -10 8 -14 53 -15 34 -1 59 3 59 9 0
6 -7 7 -16 4 -12 -4 -15 -2 -10 9 3 9 0 15 -9 15 -23 0 -22 34 3 54 17 13 27
15 34 8 8 -8 3 -13 -15 -18 -15 -3 -24 -10 -21 -16 3 -5 12 -7 19 -4 7 2 15
-4 18 -15 3 -11 15 -23 27 -26 16 -4 18 -8 8 -14 -8 -5 -9 -9 -2 -9 7 0 19 12
29 26 13 20 14 28 5 34 -9 6 -9 9 -1 15 7 4 18 1 26 -5 12 -10 15 -9 15 4 0 9
5 16 10 16 6 0 10 -4 10 -10 0 -5 9 -10 20 -10 13 0 18 5 14 15 -4 8 -1 15 5
15 7 0 14 -7 18 -15 7 -20 -28 -48 -41 -34 -14 13 -23 11 -30 -7 -3 -8 -2 -12
4 -9 6 4 17 0 25 -9 13 -13 12 -15 -7 -19 -13 -2 5 -4 40 -4 47 0 62 3 58 12
-3 8 2 16 10 19 24 9 27 7 15 -7 -6 -8 -8 -17 -4 -20 9 -10 25 -9 19 1 -6 9
19 43 30 41 5 -1 18 0 29 1 14 2 11 4 -10 9 -16 3 -31 14 -33 23 -3 15 1 15
37 -3 31 -14 39 -23 34 -37 -6 -16 -5 -16 14 0 11 10 27 18 36 18 9 0 19 5 23
12 5 8 -2 9 -24 5 -18 -4 -32 -2 -32 3 0 4 -8 11 -17 13 -10 3 3 5 28 6 33 1
49 -3 53 -14 6 -16 66 -22 66 -6 0 5 10 11 21 14 16 4 20 11 16 27 -3 14 0 23
10 27 12 5 12 7 1 14 -9 6 -9 9 -1 9 6 0 14 -4 18 -10 3 -5 12 -7 20 -3 9 3
15 -1 15 -11 0 -24 34 -38 65 -26 32 12 35 12 35 1 0 -5 -8 -12 -17 -14 -10
-2 -6 -3 9 -1 15 2 32 -3 40 -13 11 -15 11 -16 -6 -10 -11 5 -22 3 -26 -4 -5
-8 -13 -7 -28 2 -17 10 -23 10 -37 -4 -9 -10 -22 -14 -28 -10 -17 10 -61 10
-69 -1 -3 -5 -16 -10 -29 -11 -13 -1 -25 -7 -27 -14 -3 -8 5 -10 25 -6 27 6
27 6 9 -9 -11 -9 -17 -19 -13 -22 9 -9 37 15 37 32 0 8 5 14 10 14 6 0 10 -4
10 -10 0 -5 4 -10 10 -10 5 0 6 8 3 18 -6 16 -6 16 11 -1 10 -10 16 -23 13
-30 -3 -9 20 -13 92 -14 85 -2 94 0 77 13 -27 19 -13 29 16 11 42 -27 68 -30
83 -10 13 17 14 17 15 1 0 -10 7 -18 15 -18 11 0 12 6 6 23 -5 14 -19 24 -40
27 -33 5 -43 23 -17 28 9 2 16 -1 16 -7 0 -8 6 -7 19 1 16 10 18 15 8 28 -10
13 -10 13 5 2 10 -8 17 -17 16 -20 -2 -22 5 -23 27 -2 27 26 34 16 10 -16 -17
-22 -19 -50 -5 -59 5 -3 23 2 40 11 29 18 58 11 30 -6 -12 -8 -10 -10 8 -10
13 0 21 4 18 8 -2 4 -1 14 5 22 7 12 9 10 9 -7 0 -13 5 -23 12 -23 6 0 8 3 5
7 -4 3 5 12 19 20 33 16 34 16 34 -3 0 -10 -6 -14 -15 -10 -8 3 -15 1 -15 -4
0 -13 27 -13 35 0 3 6 11 10 16 10 6 0 7 -4 4 -10 -4 -6 12 -10 39 -10 26 0
46 5 46 11 0 6 -9 8 -22 3 -21 -6 -21 -6 -5 11 14 14 20 15 32 5 8 -7 12 -16
9 -21 -3 -5 18 -9 46 -9 38 0 49 3 44 12 -5 9 -2 9 9 -1 14 -11 20 -11 32 -1
8 7 15 8 15 3 0 -5 16 -9 35 -10 24 -1 35 3 35 13 0 8 8 14 18 14 9 0 23 4 31
9 12 8 13 12 1 26 -10 12 -10 19 -2 27 9 9 12 8 12 -3 0 -12 10 -15 43 -13
l42 2 -27 -14 c-16 -8 -28 -19 -28 -24 0 -6 -7 -10 -15 -10 -8 0 -15 -7 -15
-15 0 -11 10 -14 35 -12 29 1 35 6 31 19 -6 24 6 23 22 -2 10 -17 23 -20 75
-19 37 0 54 3 44 8 -16 6 -17 9 -5 19 12 9 19 7 37 -9 26 -25 33 -22 24 10 -4
16 -8 19 -14 10 -10 -16 -31 33 -32 74 0 31 7 42 22 32 7 -4 8 -12 2 -24 -13
-23 14 -65 36 -57 8 3 12 2 9 -3 -3 -4 4 -17 15 -27 19 -17 19 -19 2 -25 -12
-5 -4 -8 23 -8 34 -1 43 3 47 19 6 24 -13 70 -30 70 -7 0 -13 5 -13 10 0 13 6
13 31 -1 12 -6 18 -17 15 -25 -5 -12 11 -19 37 -15 4 0 7 -8 7 -18 0 -11 -6
-18 -16 -17 -9 0 -19 -4 -21 -10 -2 -7 26 -11 82 -11 49 -1 85 3 85 9 0 5 -9
6 -21 3 -18 -6 -20 -5 -9 6 17 18 82 18 88 0 3 -8 0 -11 -7 -7 -6 4 -18 3 -27
-2 -10 -5 31 -9 112 -10 93 -2 130 1 136 10 6 10 10 10 16 2 4 -8 50 -12 130
-12 112 -1 122 1 122 17 0 24 -23 43 -44 35 -9 -3 -16 -1 -16 5 0 16 33 27 38
13 2 -7 8 -12 13 -12 12 0 8 163 -5 173 -8 6 -7 10 2 14 20 8 14 59 -9 75 -12
8 -20 20 -18 27 4 11 9 10 22 -3 16 -16 17 -15 17 23 0 40 -11 53 -26 30 -4
-7 -9 -7 -13 -2 -9 15 -59 24 -66 13 -3 -5 -1 -10 6 -10 10 0 10 -3 1 -12 -10
-10 -15 -10 -22 2 -5 8 -6 18 -4 22 3 4 -6 8 -20 8 -18 0 -26 -6 -27 -17 0
-15 -3 -14 -11 4 -13 28 -76 43 -89 22 -6 -11 -9 -10 -15 5 -5 14 -9 15 -15 4
-8 -11 -10 -11 -18 1 -5 7 -29 15 -55 16 -25 2 -60 6 -76 10 -17 4 -36 2 -43
-3 -15 -12 -69 -13 -61 -1 3 5 16 6 30 3 13 -3 24 -2 24 4 0 5 -29 13 -66 17
-36 4 -79 11 -97 16 -21 6 -33 5 -35 -1 -2 -5 -15 -10 -28 -10 -14 0 -22 4
-19 10 7 11 6 11 -42 15 -37 3 -41 -2 -16 -21 15 -11 12 -11 -18 -1 -20 7 -43
20 -52 29 -18 17 -153 35 -182 24 -9 -3 -13 -2 -10 4 3 6 -2 11 -12 12 -10 1
-36 3 -58 5 -22 2 -49 5 -60 5 -11 1 -22 5 -25 9 -3 4 -37 10 -75 12 -39 2
-77 7 -85 10 -28 10 -191 29 -197 23 -3 -3 -12 -1 -18 4 -7 6 -37 11 -66 13
-30 1 -56 5 -59 8 -4 6 -100 19 -245 35 -16 2 -83 12 -148 23 -64 11 -134 18
-154 16 -20 -2 -31 0 -24 4 20 13 -175 34 -198 22 -28 -15 -40 -13 -18 3 15
12 10 14 -45 21 -85 9 -103 12 -172 25 -33 7 -73 9 -88 6 -16 -3 -27 -2 -24 3
3 5 -31 13 -77 20 -82 11 -213 31 -337 51 -36 6 -126 19 -201 30 -75 11 -224
33 -330 50 -107 17 -239 37 -294 45 -349 51 -680 108 -683 116 -2 5 -12 9 -23
9 -19 0 -20 -7 -19 -157z m703 -100 c-7 -2 -19 -2 -25 0 -7 3 -2 5 12 5 14 0
19 -2 13 -5z m407 -55 c0 -5 -6 -8 -14 -8 -9 0 -12 7 -9 21 4 16 8 17 14 7 5
-7 9 -16 9 -20z m35 12 c3 -5 -1 -10 -10 -10 -9 0 -13 5 -10 10 3 6 8 10 10
10 2 0 7 -4 10 -10z m-955 -10 c0 -5 -2 -10 -4 -10 -3 0 -8 5 -11 10 -3 6 -1
10 4 10 6 0 11 -4 11 -10z m-20 -20 c0 -5 -4 -10 -10 -10 -5 0 -10 5 -10 10 0
6 5 10 10 10 6 0 10 -4 10 -10z m790 6 c0 -3 -4 -8 -10 -11 -5 -3 -10 -1 -10
4 0 6 5 11 10 11 6 0 10 -2 10 -4z m-880 -22 c0 -8 -5 -12 -10 -9 -6 4 -8 11
-5 16 9 14 15 11 15 -7z m165 -24 c0 -28 22 -38 27 -13 2 12 6 14 11 6 4 -6 0
-19 -9 -27 -14 -15 -17 -14 -34 6 -10 13 -14 25 -9 26 14 6 11 22 -5 22 -8 0
-16 -7 -20 -15 -3 -8 -15 -15 -26 -15 -12 0 -19 -3 -17 -7 3 -5 -8 -8 -25 -9
-20 -1 -25 2 -16 7 10 7 9 9 -4 9 -10 0 -18 -4 -18 -10 0 -5 -9 -10 -19 -10
-11 0 -21 -6 -24 -12 -2 -7 -4 -1 -3 14 1 22 5 27 18 22 10 -3 23 -2 30 2 7 5
27 7 45 5 23 -2 35 3 44 17 17 27 54 14 54 -18z m1003 20 c-18 -28 -29 -30
-63 -9 -19 12 -24 19 -14 19 9 0 22 -7 29 -15 12 -14 15 -13 32 5 24 26 32 26
16 0z m289 14 c-3 -3 -12 -4 -19 -1 -8 3 -5 6 6 6 11 1 17 -2 13 -5z m-147
-12 c0 -4 -9 -8 -19 -8 -11 0 -17 4 -15 8 7 10 34 10 34 0z m85 -2 c-3 -5 -12
-10 -18 -10 -7 0 -6 4 3 10 19 12 23 12 15 0z m-1444 -23 c-13 -13 -26 -3 -16
12 3 6 11 8 17 5 6 -4 6 -10 -1 -17z m294 2 c-10 -15 -25 -10 -19 6 4 8 10 12
15 9 5 -3 7 -10 4 -15z m172 15 c-3 -3 -12 -4 -19 -1 -8 3 -5 6 6 6 11 1 17
-2 13 -5z m1418 -4 c3 -5 1 -10 -4 -10 -6 0 -11 5 -11 10 0 6 2 10 4 10 3 0 8
-4 11 -10z m155 -20 c0 -5 -4 -10 -10 -10 -5 0 -10 5 -10 10 0 6 5 10 10 10 6
0 10 -4 10 -10z m-1730 -20 c-14 -10 -25 -24 -25 -31 0 -7 -6 -14 -12 -16 -18
-6 -16 5 8 38 11 16 28 29 37 29 13 0 11 -5 -8 -20z m443 6 c4 -10 0 -12 -14
-9 -10 3 -16 9 -13 14 8 13 21 11 27 -5z m327 4 c0 -5 -5 -10 -11 -10 -5 0 -7
5 -4 10 3 6 8 10 11 10 2 0 4 -4 4 -10z m60 -16 c0 -18 -24 -18 -39 0 -10 11
-8 15 6 18 23 6 33 0 33 -18z m163 19 c-7 -2 -19 -2 -25 0 -7 3 -2 5 12 5 14
0 19 -2 13 -5z m-603 -13 c0 -5 -5 -10 -11 -10 -5 0 -7 5 -4 10 3 6 8 10 11
10 2 0 4 -4 4 -10z m90 0 c0 -5 -2 -10 -4 -10 -3 0 -8 5 -11 10 -3 6 -1 10 4
10 6 0 11 -4 11 -10z m90 0 c0 -5 -7 -10 -16 -10 -8 0 -12 5 -9 10 3 6 10 10
16 10 5 0 9 -4 9 -10z m330 0 c0 -5 -2 -10 -4 -10 -3 0 -8 5 -11 10 -3 6 -1
10 4 10 6 0 11 -4 11 -10z m480 0 c0 -5 -5 -10 -11 -10 -5 0 -7 5 -4 10 3 6 8
10 11 10 2 0 4 -4 4 -10z m-210 -10 c0 -5 -5 -10 -11 -10 -5 0 -7 5 -4 10 3 6
8 10 11 10 2 0 4 -4 4 -10z m143 4 c-7 -3 -9 -12 -6 -20 3 -8 1 -14 -5 -14 -8
0 -9 16 -3 38 1 1 7 2 14 1 9 0 9 -2 0 -5z m-1483 -24 c-8 -5 -18 -6 -24 -3
-5 4 -1 10 10 13 24 9 34 2 14 -10z m383 8 c14 -11 9 -13 -33 -15 -29 -1 -50
3 -50 9 0 6 9 8 20 5 11 -3 23 -1 26 4 7 12 17 11 37 -3z m387 2 c0 -5 -8 -10
-17 -10 -15 0 -16 2 -3 10 19 12 20 12 20 0z m1505 0 c3 -6 -1 -7 -9 -4 -18 7
-21 14 -7 14 6 0 13 -4 16 -10z m-2205 -10 c0 -5 -4 -10 -9 -10 -6 0 -13 5
-16 10 -3 6 1 10 9 10 9 0 16 -4 16 -10z m145 3 c-11 -3 -23 -10 -27 -17 -5
-7 -8 -7 -8 0 0 16 11 24 34 23 20 -1 20 -1 1 -6z m2030 -3 c3 -5 -1 -10 -9
-10 -9 0 -16 5 -16 10 0 6 4 10 9 10 6 0 13 -4 16 -10z m205 0 c0 -5 -4 -10
-9 -10 -6 0 -13 5 -16 10 -3 6 1 10 9 10 9 0 16 -4 16 -10z m-2170 -10 c0 -5
-2 -10 -4 -10 -3 0 -8 5 -11 10 -3 6 -1 10 4 10 6 0 11 -4 11 -10z m270 -5 c0
-8 -4 -15 -10 -15 -5 0 -7 7 -4 15 4 8 8 15 10 15 2 0 4 -7 4 -15z m76 0 c-8
-8 -20 -15 -27 -15 -7 0 -4 6 7 15 25 19 40 19 20 0z m784 -5 c0 -11 -7 -20
-15 -20 -17 0 -18 2 -9 24 9 23 24 20 24 -4z m335 10 c-3 -5 -11 -10 -16 -10
-6 0 -7 5 -4 10 3 6 11 10 16 10 6 0 7 -4 4 -10z m-1244 -10 c4 0 6 -7 2 -16
-5 -13 0 -14 31 -9 31 6 36 5 36 -11 0 -13 -3 -15 -11 -7 -6 6 -30 9 -52 7
-23 -2 -36 -1 -29 2 17 8 15 24 -3 24 -8 0 -15 -6 -15 -14 0 -7 -11 -16 -25
-18 -14 -3 -25 -1 -25 3 0 5 8 9 19 9 11 0 21 9 24 21 4 15 11 20 22 15 9 -3
21 -6 26 -6z m784 0 c3 -5 1 -10 -4 -10 -6 0 -11 5 -11 10 0 6 2 10 4 10 3 0
8 -4 11 -10z m272 4 c-3 -3 -12 -4 -19 -1 -8 3 -5 6 6 6 11 1 17 -2 13 -5z
m-1503 -39 c-4 -9 8 -13 45 -13 28 0 54 4 57 9 3 5 1 9 -5 9 -6 0 -8 7 -5 15
7 17 13 18 33 6 12 -8 12 -12 2 -25 -11 -13 -8 -15 22 -13 34 3 35 2 34 -30
-1 -18 -3 -33 -6 -33 -2 0 -19 11 -38 26 -27 20 -42 24 -83 22 -27 -2 -50 -6
-50 -10 0 -5 -4 -8 -10 -8 -5 0 -7 7 -4 15 9 21 -23 19 -35 -2 -7 -14 -14 -15
-33 -6 -26 11 -57 11 -77 -1 -9 -6 -12 -4 -9 5 3 9 21 14 54 14 51 0 65 7 77
39 6 14 10 16 22 6 7 -6 12 -17 9 -25z m181 25 c-28 -12 -37 -12 -30 0 3 6 16
10 28 9 21 0 21 -1 2 -9z m101 -24 c8 -3 12 -2 9 3 -8 13 10 22 30 15 26 -10
-17 -35 -56 -32 -19 1 -34 -3 -37 -10 -4 -14 -22 -16 -22 -3 0 5 9 13 21 16
15 5 17 10 9 20 -8 10 -7 14 7 17 10 2 19 -2 21 -8 2 -7 10 -15 18 -18z m694
24 c0 -5 -2 -10 -4 -10 -3 0 -8 5 -11 10 -3 6 -1 10 4 10 6 0 11 -4 11 -10z
m450 6 c0 -3 -4 -8 -10 -11 -5 -3 -10 -1 -10 4 0 6 5 11 10 11 6 0 10 -2 10
-4z m215 -6 c19 -8 18 -9 -4 -9 -21 -1 -22 -3 -10 -18 12 -14 12 -16 0 -12 -8
3 -18 15 -22 27 -9 24 1 27 36 12z m245 0 c0 -5 -5 -10 -11 -10 -5 0 -7 5 -4
10 3 6 8 10 11 10 2 0 4 -4 4 -10z m430 1 c0 -6 -4 -12 -8 -15 -5 -3 -9 1 -9
9 0 8 4 15 9 15 4 0 8 -4 8 -9z m-2465 -11 c3 -5 2 -10 -4 -10 -5 0 -13 5 -16
10 -3 6 -2 10 4 10 5 0 13 -4 16 -10z m221 1 c-3 -5 -17 -8 -31 -8 -14 0 -25
3 -25 8 0 5 14 9 31 9 16 0 28 -4 25 -9z m614 -1 c0 -5 -4 -10 -10 -10 -5 0
-10 5 -10 10 0 6 5 10 10 10 6 0 10 -4 10 -10z m837 -6 c-3 -3 -12 -4 -19 -1
-8 3 -5 6 6 6 11 1 17 -2 13 -5z m217 -3 c3 -4 -6 -13 -19 -19 -23 -11 -24
-10 -13 8 14 22 24 25 32 11z m186 5 c0 -11 -19 -15 -25 -6 -3 5 1 10 9 10 9
0 16 -2 16 -4z m750 -11 c0 -8 -4 -15 -10 -15 -5 0 -7 7 -4 15 4 8 8 15 10 15
2 0 4 -7 4 -15z m-2010 -20 c0 -11 6 -12 26 -5 14 6 31 10 37 9 7 0 -4 -6 -23
-13 -21 -8 -34 -19 -32 -28 2 -11 -9 -15 -45 -15 -47 -1 -44 4 10 21 13 4 16
12 11 32 -5 19 -4 25 5 20 6 -4 11 -14 11 -21z m1904 16 c3 -5 -5 -11 -19 -13
-24 -5 -32 2 -18 15 9 10 31 9 37 -2z m-1980 -16 c-7 -17 -20 -20 -29 -6 -3 5
3 12 12 14 10 3 19 5 20 6 1 0 0 -6 -3 -14z m241 4 c11 -17 -1 -21 -15 -4 -8
9 -8 15 -2 15 6 0 14 -5 17 -11z m140 1 c-3 -5 -10 -10 -16 -10 -5 0 -9 5 -9
10 0 6 7 10 16 10 8 0 12 -4 9 -10z m1385 1 c0 -5 -7 -12 -16 -15 -14 -5 -15
-4 -4 9 14 17 20 19 20 6z m-1996 -7 c25 -9 19 -24 -9 -24 -24 0 -32 10 -18
23 8 8 8 8 27 1z m126 -4 c0 -5 -4 -10 -10 -10 -5 0 -10 5 -10 10 0 6 5 10 10
10 6 0 10 -4 10 -10z m445 0 c-3 -5 -14 -10 -23 -10 -15 0 -15 2 -2 10 20 13
33 13 25 0z m1162 -8 c-10 -10 -17 -24 -17 -30 0 -7 -5 -12 -11 -12 -13 0 -1
42 15 52 21 14 29 8 13 -10z m-1781 -16 c15 -16 13 -46 -3 -46 -10 0 -12 6 -8
20 3 11 3 20 -2 21 -4 0 -18 2 -30 3 -14 2 -23 -3 -23 -11 0 -7 -4 -13 -10
-13 -16 0 -11 28 6 38 19 10 53 4 70 -12z m198 -15 c0 -30 4 -41 17 -44 10 -3
20 2 23 10 4 10 2 13 -7 10 -8 -3 -13 3 -13 14 0 10 7 21 14 24 10 4 12 0 8
-11 -5 -12 -2 -15 10 -10 13 5 15 2 10 -16 -3 -13 -6 -29 -6 -36 0 -9 -10 -12
-27 -10 -22 2 -30 -3 -40 -23 -15 -31 -43 -57 -43 -40 0 14 -47 14 -56 0 -4
-8 1 -9 17 -4 21 6 22 5 9 -6 -8 -8 -21 -21 -29 -29 -11 -13 -12 -12 -6 7 5
19 3 22 -12 17 -17 -5 -17 -5 0 6 9 6 17 18 17 26 0 12 7 14 29 9 26 -5 29 -4
24 13 -3 14 5 30 26 49 35 34 32 45 -10 36 -22 -4 -29 -2 -29 11 0 12 7 14 29
10 20 -4 30 -2 34 10 10 25 12 19 11 -23z m106 35 c0 -3 -4 -8 -10 -11 -5 -3
-10 -1 -10 4 0 6 5 11 10 11 6 0 10 -2 10 -4z m490 -6 c0 -15 -42 -70 -53 -70
-4 0 -2 7 6 15 9 8 13 24 10 36 -4 15 -3 20 5 15 7 -4 12 -2 12 3 0 6 5 11 10
11 6 0 10 -5 10 -10z m445 0 c-3 -5 -12 -10 -18 -10 -7 0 -6 4 3 10 19 12 23
12 15 0z m382 4 c-3 -3 -12 -4 -19 -1 -8 3 -5 6 6 6 11 1 17 -2 13 -5z m-927
-14 c0 -5 -9 -14 -20 -20 -23 -12 -26 -6 -7 15 14 17 27 19 27 5z m418 -6 c8
-9 8 -14 -3 -17 -7 -3 -20 2 -29 12 -14 15 -14 17 3 17 10 0 23 -6 29 -12z
m440 7 c10 -6 10 -10 -3 -21 -8 -7 -18 -10 -22 -6 -3 3 -1 6 7 6 10 0 10 3 0
15 -13 16 -3 20 18 6z m-1784 -9 c2 -4 -4 -9 -15 -9 -10 -1 -19 2 -19 8 0 11
27 12 34 1z m871 -2 c3 -5 1 -10 -4 -10 -6 0 -11 5 -11 10 0 6 2 10 4 10 3 0
8 -4 11 -10z m249 -5 c-7 -17 -20 -20 -29 -6 -3 5 3 12 12 14 10 3 19 5 20 6
1 0 0 -6 -3 -14z m316 11 c0 -3 -4 -8 -10 -11 -5 -3 -10 -1 -10 4 0 6 5 11 10
11 6 0 10 -2 10 -4z m260 -5 c0 -6 -5 -13 -12 -17 -6 -4 -8 -3 -4 4 3 6 -2 13
-11 15 -14 4 -13 5 5 6 12 0 22 -3 22 -8z m930 -1 c0 -5 -4 -10 -10 -10 -5 0
-10 5 -10 10 0 6 5 10 10 10 6 0 10 -4 10 -10z m40 0 c0 -5 -4 -10 -9 -10 -6
0 -13 5 -16 10 -3 6 1 10 9 10 9 0 16 -4 16 -10z m96 0 c8 0 14 -5 14 -11 0
-6 -7 -9 -14 -6 -10 4 -13 1 -9 -9 9 -23 -3 -16 -22 13 -16 24 -16 26 0 20 9
-4 23 -7 31 -7z m339 -11 c0 -8 -6 -13 -14 -11 -8 2 -21 0 -29 -3 -11 -4 -12
-8 -2 -20 7 -8 17 -12 24 -8 8 4 8 3 1 -5 -8 -9 -19 -9 -43 0 -39 15 -40 21
-6 36 14 7 23 16 19 21 -3 5 7 8 22 7 16 -2 28 -9 28 -17z m-2375 -4 c0 -12
-19 -12 -23 0 -4 9 -1 12 9 8 7 -3 14 -7 14 -8z m1370 5 c0 -5 -4 -10 -9 -10
-6 0 -13 5 -16 10 -3 6 1 10 9 10 9 0 16 -4 16 -10z m-1803 -14 c-22 -17 -8
-29 25 -21 13 3 30 1 38 -5 13 -9 8 -16 -25 -45 -26 -22 -42 -30 -47 -23 -5 9
-11 8 -23 -2 -15 -13 -17 -11 -13 10 2 15 11 26 22 28 11 3 16 0 12 -7 -9 -13
13 -14 34 -1 19 12 13 16 -32 23 -24 4 -38 1 -41 -6 -3 -9 -10 -8 -29 2 -15 8
-32 10 -39 5 -18 -11 -49 -13 -49 -2 0 4 11 8 25 8 16 0 25 6 25 15 0 8 4 15
9 15 5 0 11 -7 15 -15 9 -23 44 -18 62 10 9 14 24 25 33 25 14 -1 14 -2 -2
-14z m683 10 c0 -3 -4 -8 -10 -11 -5 -3 -10 -1 -10 4 0 6 5 11 10 11 6 0 10
-2 10 -4z m76 -20 c1 -7 -4 -13 -11 -13 -7 0 -10 8 -7 19 5 20 15 17 18 -6z
m234 9 c0 -8 -4 -15 -10 -15 -5 0 -7 7 -4 15 4 8 8 15 10 15 2 0 4 -7 4 -15z
m113 -5 c4 -15 0 -20 -13 -20 -13 0 -18 7 -17 20 1 11 7 20 13 20 6 0 14 -9
17 -20z m459 -2 c-17 -17 -15 -28 6 -29 9 0 12 -3 5 -5 -7 -3 -19 -2 -28 3
-13 8 -13 11 1 32 9 12 19 20 22 16 3 -3 0 -11 -6 -17z m344 13 c-4 -5 0 -11
6 -14 10 -3 10 -7 0 -19 -13 -16 -7 -48 10 -48 5 0 7 4 3 9 -3 5 -1 12 4 15 5
3 11 -1 15 -9 3 -8 17 -15 31 -15 15 0 23 -4 20 -10 -11 -17 -79 -6 -104 18
-16 14 -19 22 -10 22 10 1 8 5 -5 15 -11 8 -18 16 -15 17 48 30 52 32 45 19z
m171 3 c-3 -3 -12 -4 -19 -1 -8 3 -5 6 6 6 11 1 17 -2 13 -5z m-2642 -14 c-3
-5 -11 -10 -16 -10 -6 0 -7 5 -4 10 3 6 11 10 16 10 6 0 7 -4 4 -10z m225 6
c0 -2 -7 -7 -16 -10 -8 -3 -12 -2 -9 4 6 10 25 14 25 6z m148 -22 c7 -7 8 -15
3 -18 -5 -4 -11 -1 -13 5 -4 13 -82 16 -115 5 -16 -6 -23 -4 -23 3 0 7 4 10 8
7 5 -3 26 1 47 8 40 14 72 11 93 -10z m46 5 c-6 -11 -24 -2 -24 11 0 5 7 7 15
4 8 -4 12 -10 9 -15z m611 11 c3 -5 1 -10 -4 -10 -6 0 -11 5 -11 10 0 6 2 10
4 10 3 0 8 -4 11 -10z m100 -9 c-3 -6 -11 -11 -17 -11 -6 0 -6 6 2 15 14 17
26 13 15 -4z m1050 9 c3 -5 2 -10 -4 -10 -5 0 -13 5 -16 10 -3 6 -2 10 4 10 5
0 13 -4 16 -10z m635 1 c0 -5 -7 -11 -14 -14 -10 -4 -13 -1 -9 9 6 15 23 19
23 5z m620 -7 c0 -2 -7 -4 -15 -4 -8 0 -15 4 -15 10 0 5 7 7 15 4 8 -4 15 -8
15 -10z m-2635 -4 c-3 -5 -11 -10 -16 -10 -6 0 -7 5 -4 10 3 6 11 10 16 10 6
0 7 -4 4 -10z m42 4 c-3 -3 -12 -4 -19 -1 -8 3 -5 6 6 6 11 1 17 -2 13 -5z
m118 -5 c-4 -6 1 -16 10 -23 14 -10 12 -12 -19 -13 -20 -1 -36 3 -36 8 0 5 7
9 15 9 8 0 15 5 15 10 0 6 -11 8 -26 4 -19 -5 -25 -4 -20 5 4 6 21 11 37 11
19 0 28 -4 24 -11z m505 7 c0 -3 -4 -8 -10 -11 -5 -3 -10 -1 -10 4 0 6 5 11
10 11 6 0 10 -2 10 -4z m1257 -2 c-3 -3 -12 -4 -19 -1 -8 3 -5 6 6 6 11 1 17
-2 13 -5z m853 -19 c0 -8 -9 -10 -25 -7 -14 2 -25 10 -25 17 0 8 9 10 25 7 14
-2 25 -10 25 -17z m40 -8 c0 -5 -4 -5 -10 -2 -5 3 -10 14 -10 23 0 15 2 15 10
2 5 -8 10 -19 10 -23z m-3455 13 c-3 -5 -13 -10 -21 -10 -8 0 -12 5 -9 10 3 6
13 10 21 10 8 0 12 -4 9 -10z m1740 0 c3 -5 2 -10 -4 -10 -5 0 -13 5 -16 10
-3 6 -2 10 4 10 5 0 13 -4 16 -10z m465 0 c0 -5 -8 -10 -17 -10 -15 0 -16 2
-3 10 19 12 20 12 20 0z m307 -13 c-2 -6 -9 -13 -17 -15 -8 -3 -10 0 -5 8 6
10 4 12 -8 7 -19 -7 -49 1 -43 12 7 11 77 0 73 -12z m-1505 -5 c-7 -2 -10 -8
-6 -13 6 -10 -9 -13 -19 -3 -9 9 16 33 28 26 5 -3 4 -7 -3 -10z m1055 -4 c-3
-8 -6 -5 -6 6 -1 11 2 17 5 13 3 -3 4 -12 1 -19z m350 16 c-3 -3 -12 -4 -19
-1 -8 3 -5 6 6 6 11 1 17 -2 13 -5z m287 -9 c-6 -16 -34 -21 -34 -7 0 13 11
22 26 22 8 0 11 -6 8 -15z m646 0 c0 -8 5 -15 12 -15 16 0 1 -13 -19 -16 -9
-2 -22 4 -30 12 -18 17 -2 19 16 2 11 -11 13 -9 8 10 -3 12 -1 22 4 22 5 0 9
-7 9 -15z m-2605 -17 c7 -7 2 -9 -17 -4 -17 4 -28 2 -28 -4 0 -5 -4 -10 -10
-10 -5 0 -6 7 -3 17 5 12 3 14 -7 8 -9 -6 -11 -4 -5 4 8 14 53 7 70 -11z m328
-6 c-18 -5 -27 3 -18 17 4 7 10 7 20 -2 11 -10 11 -13 -2 -15z m167 18 c0 -5
-4 -10 -9 -10 -6 0 -13 5 -16 10 -3 6 1 10 9 10 9 0 16 -4 16 -10z m65 0 c-3
-6 4 -10 16 -10 17 0 20 -3 12 -11 -8 -8 -17 -7 -32 3 -25 15 -27 28 -5 28 8
0 12 -4 9 -10z m67 -12 c-7 -7 -12 -8 -12 -2 0 14 12 26 19 19 2 -3 -1 -11 -7
-17z m48 12 c0 -5 -4 -10 -10 -10 -5 0 -10 5 -10 10 0 6 5 10 10 10 6 0 10 -4
10 -10z m290 6 c0 -3 -4 -8 -10 -11 -5 -3 -10 -1 -10 4 0 6 5 11 10 11 6 0 10
-2 10 -4z m832 -18 c-7 -7 -12 -8 -12 -2 0 14 12 26 19 19 2 -3 -1 -11 -7 -17z
m233 12 c3 -5 1 -10 -4 -10 -6 0 -11 5 -11 10 0 6 2 10 4 10 3 0 8 -4 11 -10z
m859 -6 c5 -12 2 -15 -10 -10 -8 3 -18 6 -20 6 -3 0 -2 5 1 10 9 15 22 12 29
-6z m-3484 -4 c0 -5 -7 -10 -15 -10 -8 0 -15 5 -15 10 0 6 7 10 15 10 8 0 15
-4 15 -10z m730 4 c0 -4 -7 -12 -16 -19 -15 -10 -15 -13 2 -29 17 -18 14 -25
-21 -40 -6 -3 -3 -9 5 -15 11 -7 17 -6 23 4 11 20 34 19 47 -2 8 -13 13 -14
16 -5 3 6 12 12 20 12 8 0 14 5 14 11 0 5 4 8 10 4 5 -3 26 1 46 10 43 18 47
18 39 5 -3 -5 -1 -10 5 -10 6 0 8 -4 5 -10 -3 -5 -1 -10 5 -10 6 0 8 -4 5 -10
-10 -16 -23 -12 -30 10 -3 11 -11 20 -17 20 -5 0 -8 -7 -5 -15 5 -11 0 -13
-21 -11 -15 2 -21 1 -14 -1 25 -9 12 -25 -16 -20 -21 4 -29 2 -29 -9 0 -8 10
-14 24 -14 26 0 31 -15 7 -24 -10 -4 -23 3 -36 20 -14 17 -26 23 -37 19 -9 -4
-23 -8 -30 -9 -8 -2 -17 -8 -19 -14 -7 -23 -24 -12 -20 13 3 14 2 25 -1 25
-11 0 -28 -15 -34 -30 -5 -13 -6 -13 -6 1 -1 20 -55 14 -73 -9 -11 -13 -9 -15
14 -10 l27 5 -16 -28 c-19 -32 -38 -39 -31 -11 3 10 -1 23 -9 30 -7 7 -13 22
-13 32 0 11 -5 20 -10 20 -12 0 21 49 33 50 12 0 8 -28 -5 -33 -22 -7 -3 -17
36 -19 20 -1 42 5 49 12 10 10 8 12 -7 6 -14 -5 -17 -2 -12 9 3 9 0 15 -10 15
-8 0 -12 5 -9 10 3 6 15 10 26 10 22 0 24 11 7 28 -8 8 -8 12 -1 12 6 0 14 -7
17 -16 5 -13 9 -14 21 -4 8 7 15 19 15 26 0 8 7 14 15 14 8 0 15 -3 15 -6z
m279 -7 c11 -9 15 -9 18 1 5 14 23 16 23 3 0 -5 -10 -13 -21 -16 -12 -4 -18
-10 -13 -14 20 -14 14 -32 -8 -29 -16 2 -23 10 -23 25 0 12 -4 25 -8 29 -4 4
-7 2 -7 -4 0 -7 -4 -12 -10 -12 -5 0 -10 6 -10 13 0 17 40 19 59 4z m416 2
c12 -19 -5 -23 -22 -6 -16 16 -16 17 -1 17 9 0 20 -5 23 -11z m211 -4 c4 -8
11 -12 18 -8 6 3 3 -3 -7 -14 -18 -21 -57 -37 -57 -24 0 3 9 13 20 21 26 19
26 33 -1 25 -15 -5 -19 -4 -15 4 10 16 36 14 42 -4z m159 5 c3 -5 2 -10 -4
-10 -5 0 -13 5 -16 10 -3 6 -2 10 4 10 5 0 13 -4 16 -10z m230 0 c3 -5 -1 -10
-10 -10 -9 0 -13 5 -10 10 3 6 8 10 10 10 2 0 7 -4 10 -10z m45 0 c0 -5 -4
-10 -10 -10 -5 0 -10 5 -10 10 0 6 5 10 10 10 6 0 10 -4 10 -10z m595 0 c3 -6
-1 -7 -9 -4 -18 7 -21 14 -7 14 6 0 13 -4 16 -10z m170 0 c3 -5 1 -10 -4 -10
-6 0 -11 5 -11 10 0 6 2 10 4 10 3 0 8 -4 11 -10z m740 0 c3 -6 -1 -7 -9 -4
-18 7 -21 14 -7 14 6 0 13 -4 16 -10z m-3635 -14 c-4 -4 -16 -4 -26 2 -16 9
-14 10 8 9 15 -1 23 -6 18 -11z m240 10 c0 -2 3 -11 6 -19 4 -11 -1 -13 -20
-10 -26 5 -32 14 -19 26 7 8 33 10 33 3z m610 -11 c7 -8 8 -15 2 -15 -5 0 -15
7 -22 15 -7 8 -8 15 -2 15 5 0 15 -7 22 -15z m510 5 c0 -5 -4 -10 -10 -10 -5
0 -10 5 -10 10 0 6 5 10 10 10 6 0 10 -4 10 -10z m410 0 c0 -5 -7 -10 -15 -10
-8 0 -15 5 -15 10 0 6 7 10 15 10 8 0 15 -4 15 -10z m590 6 c0 -2 -7 -7 -16
-10 -8 -3 -12 -2 -9 4 6 10 25 14 25 6z m975 -5 c17 -7 15 -9 -13 -13 -31 -4
-40 1 -25 15 8 8 12 8 38 -2z m158 2 c-7 -2 -19 -2 -25 0 -7 3 -2 5 12 5 14 0
19 -2 13 -5z m-3343 -7 c0 -2 -7 -9 -15 -16 -12 -10 -15 -10 -15 4 0 9 7 16
15 16 8 0 15 -2 15 -4z m350 -6 c0 -12 -40 -34 -48 -26 -3 3 0 6 7 6 8 0 11 7
7 15 -4 10 1 15 14 15 11 0 20 -4 20 -10z m66 1 c-3 -5 2 -12 11 -15 14 -6 14
-8 -3 -21 -18 -14 -18 -14 4 -15 12 0 22 -5 22 -11 0 -6 -7 -8 -16 -5 -9 3
-20 6 -25 6 -6 0 -7 9 -4 20 4 14 1 22 -11 27 -16 6 -16 7 2 14 26 10 26 10
20 0z m754 -6 c0 -8 -4 -15 -10 -15 -5 0 -10 7 -10 15 0 8 5 15 10 15 6 0 10
-7 10 -15z m510 11 c0 -3 -4 -8 -10 -11 -5 -3 -10 -1 -10 4 0 6 5 11 10 11 6
0 10 -2 10 -4z m574 -2 c9 -3 16 -12 16 -20 0 -8 7 -14 15 -14 8 0 15 -6 15
-14 0 -7 9 -16 20 -19 11 -3 20 -11 20 -17 0 -8 -9 -7 -27 5 -42 26 -73 57
-68 66 3 4 -1 10 -7 12 -7 3 -10 6 -6 6 3 1 13 -2 22 -5z m378 -2 c-9 -6 0
-13 28 -21 22 -6 40 -16 40 -21 0 -6 9 -10 20 -10 11 0 19 3 18 8 -3 7 5 12
21 12 5 0 17 -7 26 -16 19 -19 33 -11 16 10 -7 8 -8 17 -3 20 9 5 24 -16 26
-36 1 -3 4 -10 9 -14 15 -15 6 -24 -14 -13 -17 9 -23 8 -30 -2 -7 -11 -9 -10
-9 4 0 19 -19 22 -68 8 -31 -9 -40 -1 -29 26 1 3 -13 11 -32 18 -38 12 -54 35
-24 35 13 0 14 -3 5 -8z m53 -2 c3 -5 2 -10 -4 -10 -5 0 -13 5 -16 10 -3 6 -2
10 4 10 5 0 13 -4 16 -10z m-2018 -15 c8 -9 13 -19 10 -22 -6 -5 -37 21 -37
31 0 10 11 6 27 -9z m93 0 c-14 -8 -32 -14 -42 -15 -9 0 -19 -6 -21 -12 -4 -9
-6 -7 -6 3 -1 10 12 20 32 27 47 15 66 13 37 -3z m610 5 c0 -5 -5 -10 -11 -10
-5 0 -7 5 -4 10 3 6 8 10 11 10 2 0 4 -4 4 -10z m107 -5 c0 -8 -4 -15 -9 -15
-10 0 -11 14 -1 23 9 10 10 9 10 -8z m368 5 c-3 -5 -13 -10 -21 -10 -8 0 -14
5 -14 10 0 6 9 10 21 10 11 0 17 -4 14 -10z m29 -1 c-3 -6 0 -15 7 -20 10 -6
5 -9 -15 -9 -28 0 -29 0 -11 20 20 22 30 27 19 9z m702 -10 c3 -5 -2 -6 -10
-3 -11 4 -16 0 -16 -10 0 -20 -16 -21 -24 -1 -3 8 -1 15 5 15 6 0 8 4 5 9 -4
5 3 7 14 4 11 -3 23 -9 26 -14z m404 17 c0 -11 -19 -15 -25 -6 -3 5 1 10 9 10
9 0 16 -2 16 -4z m-1971 -32 c-15 -18 -35 -18 -42 0 -6 15 18 26 41 18 9 -3
10 -8 1 -18z m61 16 c-20 -13 -43 -13 -35 0 3 6 16 10 28 10 18 0 19 -2 7 -10z
m40 0 c0 -5 -2 -10 -4 -10 -3 0 -8 5 -11 10 -3 6 -1 10 4 10 6 0 11 -4 11 -10z
m298 1 c-2 -5 6 -17 17 -25 17 -13 18 -15 3 -16 -9 0 -19 4 -23 10 -3 5 -12 7
-20 3 -21 -7 -19 14 3 26 21 13 23 13 20 2z m321 -5 c9 -11 9 -16 0 -22 -8 -4
-9 -3 -5 4 4 7 1 12 -8 12 -9 0 -16 -5 -16 -12 0 -6 -2 -9 -5 -6 -7 7 5 38 15
38 4 0 13 -6 19 -14z m676 4 c3 -5 1 -10 -4 -10 -6 0 -11 5 -11 10 0 6 2 10 4
10 3 0 8 -4 11 -10z m101 -15 c15 -13 25 -27 21 -31 -4 -4 -16 1 -27 11 -11
10 -22 16 -25 13 -9 -9 7 -38 21 -38 8 0 14 -4 14 -10 0 -13 -37 -13 -45 0 -3
5 -13 7 -23 4 -14 -5 -13 -2 3 11 14 12 16 19 8 22 -7 3 -13 9 -13 14 0 4 8 5
18 2 15 -6 15 -5 3 10 -22 27 10 22 45 -8z m514 10 c0 -8 -4 -15 -10 -15 -5 0
-7 7 -4 15 4 8 8 15 10 15 2 0 4 -7 4 -15z m265 5 c-3 -5 -11 -10 -16 -10 -6
0 -7 5 -4 10 3 6 11 10 16 10 6 0 7 -4 4 -10z m95 2 c0 -4 -9 -13 -19 -19 -16
-10 -20 -9 -24 8 -4 15 0 19 19 19 13 0 24 -3 24 -8z m324 -8 c4 -12 2 -15 -9
-10 -8 3 -15 1 -15 -5 0 -6 -5 -7 -12 -3 -7 5 -5 11 7 21 23 16 22 16 29 -3z
m-3752 -6 c-9 -9 -15 -9 -24 0 -9 9 -7 12 12 12 19 0 21 -3 12 -12z m1238 -8
c-8 -5 -17 -7 -19 -4 -3 3 1 9 9 14 8 5 17 7 19 4 3 -3 -1 -9 -9 -14z m469 -7
c-7 -19 -7 -28 3 -34 7 -4 9 -11 5 -15 -10 -10 -38 17 -30 30 4 6 6 19 5 29
-2 10 3 17 12 17 13 0 14 -5 5 -27z m285 11 c9 -24 7 -28 -9 -14 -17 14 -20
30 -6 30 5 0 12 -7 15 -16z m423 1 c0 -8 -4 -15 -9 -15 -4 0 -8 7 -8 15 0 8 4
15 8 15 5 0 9 -7 9 -15z m706 1 c6 -16 -1 -26 -17 -26 -6 0 -4 5 4 10 10 6 11
10 3 10 -7 0 -13 5 -13 10 0 15 17 12 23 -4z m412 -7 c-10 -15 -25 -10 -19 6
4 8 10 12 15 9 5 -3 7 -10 4 -15z m41 1 c0 -11 -4 -20 -8 -20 -4 0 -8 9 -8 20
0 11 4 20 8 20 4 0 8 -9 8 -20z m264 16 c0 -3 -4 -8 -10 -11 -5 -3 -10 -1 -10
4 0 6 5 11 10 11 6 0 10 -2 10 -4z m-3700 -16 c0 -5 -9 -10 -19 -10 -11 0 -23
5 -26 10 -4 6 5 10 19 10 14 0 26 -4 26 -10z m275 -21 c-4 -5 -3 -9 2 -8 4 1
16 1 26 0 24 -1 22 -21 -3 -21 -14 0 -18 -5 -14 -17 5 -15 3 -15 -10 1 -15 19
-16 19 -17 -10 0 -27 -1 -28 -9 -6 -6 14 -21 25 -40 28 -16 4 -27 11 -24 16 3
5 19 6 35 3 28 -6 29 -5 25 19 -4 23 -3 25 15 15 11 -5 17 -14 14 -20z m1850
21 c3 -5 1 -10 -4 -10 -6 0 -11 5 -11 10 0 6 2 10 4 10 3 0 8 -4 11 -10z m715
-6 c0 -14 -3 -15 -17 -3 -10 7 -20 15 -22 16 -2 2 5 3 17 3 14 0 22 -6 22 -16z
m50 6 c0 -5 -4 -10 -10 -10 -5 0 -10 5 -10 10 0 6 5 10 10 10 6 0 10 -4 10
-10z m140 0 c0 -5 -4 -10 -10 -10 -5 0 -10 5 -10 10 0 6 5 10 10 10 6 0 10 -4
10 -10z m75 0 c-27 -12 -43 -12 -25 0 8 5 22 9 30 9 10 0 8 -3 -5 -9z m-3325
-10 c-8 -5 -19 -10 -25 -10 -5 0 -3 5 5 10 8 5 20 10 25 10 6 0 3 -5 -5 -10z
m40 6 c0 -3 -4 -8 -10 -11 -5 -3 -10 -1 -10 4 0 6 5 11 10 11 6 0 10 -2 10 -4z
m120 -6 c11 -8 7 -10 -17 -8 -18 1 -33 6 -33 10 0 11 32 10 50 -2z m280 0 c0
-5 -9 -10 -21 -10 -11 0 -17 5 -14 10 3 6 13 10 21 10 8 0 14 -4 14 -10z
m1470 6 c0 -11 -19 -15 -25 -6 -3 5 1 10 9 10 9 0 16 -2 16 -4z m366 -52 c-8
-8 -21 -14 -28 -14 -9 1 -7 5 5 14 23 18 22 29 -3 21 -16 -5 -20 -2 -20 15 l0
21 30 -21 c26 -19 28 -23 16 -36z m508 37 c16 -17 16 -19 -1 -26 -10 -4 -29
-9 -43 -11 -23 -3 -24 -2 -7 11 11 7 25 11 33 8 8 -3 14 0 14 6 0 6 -7 11 -15
11 -8 0 -15 5 -15 10 0 16 15 12 34 -9z m916 9 c0 -5 -7 -10 -15 -10 -8 0 -15
5 -15 10 0 6 7 10 15 10 8 0 15 -4 15 -10z m-2275 -10 c3 -5 -1 -10 -9 -10 -9
0 -16 5 -16 10 0 6 4 10 9 10 6 0 13 -4 16 -10z m1293 -15 c-3 -3 -9 2 -12 12
-6 14 -5 15 5 6 7 -7 10 -15 7 -18z m285 -12 c-8 -21 -20 -14 -20 11 0 19 2
22 12 13 7 -7 10 -18 8 -24z m374 31 c-3 -3 -12 -4 -19 -1 -8 3 -5 6 6 6 11 1
17 -2 13 -5z m408 -4 c-3 -5 -11 -10 -16 -10 -6 0 -7 5 -4 10 3 6 11 10 16 10
6 0 7 -4 4 -10z m65 -5 c7 -8 9 -15 4 -15 -5 0 -2 -5 6 -10 9 -6 10 -10 3 -10
-6 0 -18 6 -25 13 -7 8 -20 11 -27 9 -12 -4 -12 -2 0 11 18 20 24 21 39 2z
m80 5 c0 -5 -11 -10 -25 -10 -14 0 -25 5 -25 10 0 6 11 10 25 10 14 0 25 -4
25 -10z m102 -12 c-7 -7 -20 -7 -39 1 l-28 11 28 -5 c16 -3 27 -1 27 5 0 6 5
8 11 4 7 -4 7 -10 1 -16z m-2933 -5 c-8 -10 -18 -21 -24 -25 -5 -4 -11 -11
-11 -15 -6 -33 -19 -53 -35 -53 -11 0 -19 5 -19 10 0 6 8 10 17 10 9 0 14 3
10 6 -3 4 -30 -1 -58 -10 -47 -16 -53 -16 -68 -2 -10 11 -11 16 -3 16 7 0 12
-4 12 -10 0 -5 8 -10 18 -10 15 0 15 2 2 11 -13 9 -12 10 3 5 9 -3 17 -1 17 4
0 6 9 10 20 10 11 0 20 4 20 9 0 5 12 11 27 13 30 3 44 27 16 29 -15 1 22 12
61 18 5 0 2 -7 -5 -16z m55 2 c-7 -17 -20 -20 -28 -6 -4 5 0 12 6 14 23 9 28
7 22 -8z m46 4 c0 -8 11 -9 33 -5 30 5 31 5 12 -10 -17 -12 -17 -16 -6 -24 12
-7 13 -11 1 -25 -9 -10 -10 -19 -3 -26 15 -15 41 0 36 21 -3 10 1 21 8 26 9 5
10 2 6 -10 -5 -13 3 -21 34 -35 31 -14 36 -20 23 -25 -10 -4 -25 1 -36 10 -10
10 -21 14 -25 10 -11 -10 19 -35 47 -38 14 -2 33 -12 42 -23 16 -18 17 -18 18
-2 0 9 5 17 10 17 6 0 10 6 10 14 0 9 8 13 23 10 12 -2 16 -2 10 2 -7 3 -13
11 -13 17 0 8 3 8 11 0 6 -6 19 -9 28 -7 9 3 7 -2 -6 -12 -13 -9 -23 -23 -23
-30 0 -18 10 -17 34 1 11 8 35 15 53 15 18 0 33 4 33 9 0 4 -11 6 -25 3 -18
-3 -25 0 -23 8 2 7 -7 16 -19 19 l-22 6 25 28 c13 16 29 25 34 22 16 -10 12
-25 -7 -26 -14 0 -15 -2 -3 -6 8 -3 19 -12 23 -19 9 -16 37 -19 37 -4 0 6 -5
10 -12 10 -6 0 -9 3 -5 6 11 11 46 -7 40 -22 -3 -7 -1 -14 5 -14 5 0 12 -7 16
-15 5 -13 2 -14 -15 -4 -16 8 -23 8 -29 -1 -4 -7 -22 -14 -39 -16 -37 -4 -76
-23 -67 -32 4 -3 12 0 18 6 15 15 38 16 38 2 0 -18 -52 -32 -77 -21 -30 14
-30 -4 -1 -20 l22 -12 -24 -9 c-16 -6 -26 -5 -28 1 -8 25 -24 9 -18 -19 5 -27
3 -30 -19 -30 -15 0 -25 -6 -25 -15 0 -22 -31 -54 -46 -48 -10 4 -8 10 9 24
16 13 18 18 7 19 -8 0 -21 9 -28 20 -11 18 -10 20 9 20 11 0 17 -4 14 -10 -11
-18 9 -10 40 16 26 22 27 25 8 19 -14 -4 -23 -2 -23 4 0 6 6 11 14 11 8 0 17
4 21 10 7 12 -26 51 -37 44 -5 -3 -4 -12 3 -20 6 -8 9 -18 5 -22 -4 -4 -12 1
-17 11 -7 12 -17 16 -30 12 -14 -5 -17 -2 -13 9 3 8 12 12 20 9 8 -3 14 -1 14
3 0 13 -60 45 -71 38 -16 -10 -10 -24 11 -24 11 0 20 -5 20 -11 0 -6 -9 -8
-20 -4 -39 12 -14 -24 36 -53 18 -11 18 -11 -3 -12 -13 0 -23 5 -23 10 0 6 -6
10 -14 10 -8 0 -18 9 -21 20 -7 21 -34 27 -51 10 -7 -7 -15 -2 -24 15 -16 29
-27 31 -51 9 -9 -8 -24 -16 -32 -18 -8 -1 -23 -8 -32 -16 -14 -12 -18 -12 -27
1 -7 11 -11 11 -15 2 -6 -15 -29 -17 -38 -3 -4 6 1 7 11 3 12 -4 15 -3 10 5
-4 7 -13 12 -21 12 -20 0 -30 -21 -15 -30 7 -4 9 -13 6 -19 -11 -17 -27 -13
-24 7 2 12 -3 16 -17 14 -18 -4 -18 -2 4 17 l24 21 -34 0 c-26 1 -30 3 -18 10
9 5 29 6 45 1 16 -4 34 -6 41 -4 6 2 14 -1 18 -6 11 -19 41 -12 65 14 17 18
29 23 48 18 18 -4 23 -3 17 6 -4 7 -18 11 -31 8 -16 -3 -24 0 -24 10 0 8 -5
11 -12 7 -7 -4 -8 -3 -4 4 5 9 13 9 26 2 10 -5 28 -10 40 -10 19 0 21 4 15 27
-6 24 -5 25 11 12 14 -12 18 -12 22 0 3 10 6 11 12 1 5 -8 15 -10 26 -5 18 8
18 8 1 12 -14 4 -16 8 -6 19 9 11 8 14 -9 14 -11 0 -22 7 -26 15 -3 9 0 15 9
15 8 0 15 -5 15 -11z m344 2 c3 -5 -1 -12 -10 -15 -22 -9 -24 -8 -24 9 0 16
25 21 34 6z m484 -18 c-2 -14 -10 -28 -18 -30 -11 -3 -11 -2 -3 4 8 6 9 13 2
23 -8 13 -12 12 -24 -4 -8 -11 -16 -17 -16 -13 -5 26 -2 33 16 39 39 12 46 9
43 -19z m110 7 c-7 -10 -14 -17 -17 -15 -4 4 18 35 25 35 2 0 -1 -9 -8 -20z
m1172 10 c0 -5 -5 -10 -11 -10 -5 0 -7 5 -4 10 3 6 8 10 11 10 2 0 4 -4 4 -10z
m255 0 c-3 -5 -11 -10 -16 -10 -6 0 -7 5 -4 10 3 6 11 10 16 10 6 0 7 -4 4
-10z m540 0 c-3 -5 -11 -10 -16 -10 -6 0 -7 5 -4 10 3 6 11 10 16 10 6 0 7 -4
4 -10z m-3995 -10 c0 -5 -4 -10 -10 -10 -5 0 -10 5 -10 10 0 6 5 10 10 10 6 0
10 -4 10 -10z m147 4 c-3 -3 -12 -4 -19 -1 -8 3 -5 6 6 6 11 1 17 -2 13 -5z
m1359 -18 c0 -14 -6 -22 -13 -19 -9 4 -9 9 0 24 15 24 15 24 13 -5z m134 9
c10 -13 9 -15 -9 -15 -15 0 -20 4 -15 13 5 8 2 8 -9 -2 -9 -7 -17 -9 -17 -4 0
26 31 31 50 8z m460 6 c0 -12 -20 -25 -27 -18 -7 7 6 27 18 27 5 0 9 -4 9 -9z
m164 -6 c8 -9 20 -14 27 -13 6 2 13 -2 16 -9 6 -16 -23 -10 -45 10 -10 9 -21
14 -24 11 -3 -3 -9 -1 -13 5 -10 17 22 13 39 -4z m897 -16 c10 0 10 -2 2 -6
-20 -8 -15 -23 8 -23 17 0 18 -2 7 -14 -8 -7 -23 -13 -35 -12 -12 1 -22 -3
-22 -9 -1 -5 8 -10 18 -10 11 0 23 -3 27 -7 4 -5 0 -8 -10 -8 -9 0 -14 -4 -11
-10 3 -5 -3 -10 -14 -10 -11 0 -24 6 -28 14 -4 7 -17 16 -28 20 -16 5 -21 1
-22 -14 -1 -11 2 -20 8 -20 13 0 11 -27 -3 -36 -6 -4 -8 -3 -5 2 10 17 -10 37
-29 30 -22 -9 -24 -8 -25 2 -1 17 -30 22 -45 8 -18 -19 -10 -36 17 -36 11 0
17 -4 14 -10 -12 -19 -34 -10 -49 19 -15 27 -14 29 12 41 l27 12 -52 17 c-28
9 -55 20 -60 25 -4 5 -1 7 9 3 10 -4 18 1 21 14 3 13 11 17 21 13 18 -7 22
-24 6 -24 -5 0 -10 -5 -10 -11 0 -11 37 -9 90 6 23 6 24 5 8 -8 -22 -17 -23
-37 -3 -37 8 0 15 -4 15 -10 0 -5 4 -10 9 -10 13 0 22 43 10 51 -16 10 6 20
26 13 10 -4 21 -1 26 7 6 10 9 10 9 2 0 -20 28 -15 33 5 2 9 -4 26 -12 37 -16
19 -15 20 5 3 11 -10 27 -18 35 -19z m912 24 c-7 -2 -19 -2 -25 0 -7 3 -2 5
12 5 14 0 19 -2 13 -5z m-2897 -18 c-21 -16 -32 -13 -21 4 3 6 14 11 23 11 15
-1 15 -2 -2 -15z m56 -3 c-7 -2 -9 -8 -6 -13 3 -6 12 -5 22 3 13 11 15 11 10
-3 -4 -9 -1 -22 5 -28 8 -8 7 -11 -6 -11 -9 0 -17 5 -17 10 0 6 -9 10 -20 10
-11 0 -20 5 -20 10 0 17 24 39 35 32 5 -3 4 -7 -3 -10z m58 -4 c0 -6 -6 -5
-15 2 -8 7 -15 14 -15 16 0 2 7 1 15 -2 8 -4 15 -11 15 -16z m454 -15 c-17
-16 -30 -21 -37 -14 -7 5 -21 11 -32 14 -12 3 -4 5 18 6 25 1 37 6 37 15 0 9
7 12 20 9 19 -5 19 -6 -6 -30z m216 27 c0 -5 -4 -10 -10 -10 -5 0 -10 5 -10
10 0 6 5 10 10 10 6 0 10 -4 10 -10z m457 -5 c36 -18 59 -43 49 -52 -6 -7 -21
9 -29 30 -1 5 -15 10 -30 10 -15 1 -27 8 -27 15 0 15 1 15 37 -3z m990 9 c-3
-3 -12 -4 -19 -1 -8 3 -5 6 6 6 11 1 17 -2 13 -5z m-3377 -14 c0 -5 -4 -10
-10 -10 -5 0 -10 5 -10 10 0 6 5 10 10 10 6 0 10 -4 10 -10z m1322 -27 c6 -8
-1 -11 -26 -10 l-36 1 22 24 c16 16 24 19 27 10 2 -7 8 -18 13 -25z m23 27 c3
-5 1 -10 -4 -10 -6 0 -11 5 -11 10 0 6 2 10 4 10 3 0 8 -4 11 -10z m435 -5
c-7 -9 -15 -13 -19 -10 -3 3 1 10 9 15 21 14 24 12 10 -5z m1270 0 c-7 -8 -17
-15 -22 -15 -6 0 -5 7 2 15 7 8 17 15 22 15 6 0 5 -7 -2 -15z m604 0 c3 -9 0
-15 -9 -15 -8 0 -15 7 -15 15 0 8 4 15 9 15 5 0 11 -7 15 -15z m226 4 c0 -5
-4 -9 -9 -9 -5 0 -16 -2 -24 -5 -7 -3 -14 0 -14 7 0 7 11 14 24 14 13 1 23 -2
23 -7z m186 -4 c-8 -9 -13 -22 -10 -30 4 -10 0 -15 -14 -15 -11 0 -22 7 -26
15 -4 10 1 15 14 15 11 0 20 7 20 15 0 8 7 15 16 15 14 0 14 -2 0 -15z m-3916
-3 c0 -4 -15 -16 -32 -26 l-33 -18 30 26 c34 28 35 29 35 18z m99 -10 c-7 -3
-17 -10 -21 -16 -5 -7 -8 -5 -8 5 0 22 9 29 28 21 13 -5 14 -6 1 -10z m591 9
c0 -12 -39 -25 -48 -16 -7 7 17 25 36 25 6 0 12 -4 12 -9z m147 -5 c-14 -11
-15 -15 -5 -19 9 -4 7 -6 -4 -6 -9 -1 -20 4 -24 10 -7 13 13 29 36 29 12 -1
11 -3 -3 -14z m1338 4 c3 -5 1 -10 -4 -10 -6 0 -11 5 -11 10 0 6 2 10 4 10 3
0 8 -4 11 -10z m370 0 c7 -11 -35 -31 -49 -22 -5 2 2 11 15 18 29 16 27 16 34
4z m300 0 c-3 -5 -10 -10 -16 -10 -5 0 -9 5 -9 10 0 6 7 10 16 10 8 0 12 -4 9
-10z m413 -2 c8 -10 4 -13 -14 -13 -26 0 -32 10 -11 18 6 3 13 6 13 6 1 1 6
-5 12 -11z m62 2 c0 -5 -4 -10 -10 -10 -5 0 -10 5 -10 10 0 6 5 10 10 10 6 0
10 -4 10 -10z m507 4 c-3 -3 -12 -4 -19 -1 -8 3 -5 6 6 6 11 1 17 -2 13 -5z
m153 -16 c0 -21 0 -21 21 -2 21 19 22 19 15 -3 -6 -17 -3 -23 8 -23 9 0 16 -9
16 -20 0 -11 -5 -20 -11 -20 -6 0 -8 7 -5 15 4 11 -3 17 -24 21 -33 7 -55 28
-45 44 11 17 25 11 25 -12z m-3715 3 c-11 -5 -29 -18 -39 -30 -20 -22 -76 -30
-76 -10 0 6 8 8 19 4 12 -4 29 3 48 19 15 14 37 25 48 25 l20 0 -20 -8z m1100
-1 c-3 -5 -10 -10 -16 -10 -5 0 -9 5 -9 10 0 6 7 10 16 10 8 0 12 -4 9 -10z
m50 0 c3 -5 1 -10 -4 -10 -6 0 -11 5 -11 10 0 6 2 10 4 10 3 0 8 -4 11 -10z
m475 0 c0 -5 -2 -10 -4 -10 -2 0 -12 -3 -20 -6 -12 -5 -15 -2 -10 10 7 17 34
22 34 6z m56 -4 c10 -11 11 -17 3 -22 -6 -3 -15 0 -20 7 -18 29 -7 39 17 15z
m124 10 c0 -2 -8 -10 -17 -17 -16 -13 -17 -12 -4 4 13 16 21 21 21 13z m256
-11 c4 -8 12 -15 19 -15 11 0 30 -29 23 -36 -4 -3 -68 54 -68 61 0 12 21 4 26
-10z m108 3 c5 -10 7 -10 12 0 6 14 34 17 34 3 0 -11 -38 -21 -56 -14 -8 3
-14 9 -14 14 0 13 17 11 24 -3z m191 2 c3 -5 1 -10 -4 -10 -6 0 -11 5 -11 10
0 6 2 10 4 10 3 0 8 -4 11 -10z m420 0 c3 -5 -1 -10 -9 -10 -9 0 -16 5 -16 10
0 6 4 10 9 10 6 0 13 -4 16 -10z m444 -29 c26 -33 29 -40 17 -51 -8 -6 -12
-18 -10 -25 3 -7 -4 -18 -15 -25 -24 -12 -25 -11 -11 24 7 21 6 26 -5 26 -8 0
-15 -7 -15 -15 0 -8 -4 -15 -10 -15 -5 0 -10 5 -10 10 0 6 -13 10 -29 10 -17
0 -33 -4 -36 -10 -11 -18 -26 -10 -20 10 7 21 -1 25 -24 11 -9 -6 -10 -11 -2
-15 25 -16 -2 -25 -30 -11 -34 18 -39 29 -8 20 18 -6 21 -4 17 12 -6 21 -8 21
82 9 37 -5 49 -2 70 15 l24 21 -24 19 c-19 14 -21 19 -8 19 9 0 30 -17 47 -39z
m61 24 c-14 -17 -30 -20 -30 -6 0 5 8 12 18 14 9 3 19 5 21 6 2 0 -2 -6 -9
-14z m-3510 -3 c0 -10 -50 -35 -57 -28 -2 2 5 7 16 11 12 3 21 11 21 16 0 5 5
9 10 9 6 0 10 -4 10 -8z m1965 -2 c-27 -12 -35 -12 -35 0 0 6 12 10 28 9 24 0
25 -1 7 -9z m101 -2 c4 -6 2 -14 -5 -16 -8 -3 -6 -8 6 -18 16 -12 16 -13 2
-14 -17 0 -29 19 -29 46 0 17 16 18 26 2z m484 8 c0 -3 -4 -8 -10 -11 -5 -3
-10 -1 -10 4 0 6 5 11 10 11 6 0 10 -2 10 -4z m70 0 c0 -3 -4 -8 -10 -11 -5
-3 -10 -1 -10 4 0 6 5 11 10 11 6 0 10 -2 10 -4z m447 -23 c-2 -1 -14 1 -27 4
-22 6 -22 7 -4 13 15 6 40 -8 31 -17z m-2957 12 c0 -2 -9 -9 -20 -15 -16 -9
-18 -8 -14 5 5 13 34 22 34 10z m377 -15 l25 -20 -27 -10 c-30 -12 -48 -4 -25
10 22 13 5 23 -19 11 -13 -7 -22 -8 -26 -1 -3 6 4 10 17 10 18 0 20 2 8 10
-13 8 -12 10 3 10 11 0 30 -9 44 -20z m928 10 c3 -5 1 -10 -4 -10 -6 0 -11 5
-11 10 0 6 2 10 4 10 3 0 8 -4 11 -10z m185 -5 c0 -8 -4 -15 -10 -15 -5 0 -7
-7 -4 -15 4 -8 2 -15 -4 -15 -16 0 -23 30 -9 45 16 19 27 19 27 0z m590 5 c0
-5 -5 -10 -11 -10 -5 0 -7 5 -4 10 3 6 8 10 11 10 2 0 4 -4 4 -10z m179 1 c7
-5 11 -14 7 -20 -5 -7 -12 -7 -26 1 -10 7 -16 16 -14 20 7 10 15 10 33 -1z
m1001 -6 c14 -16 10 -18 -14 -9 -9 3 -16 10 -16 15 0 14 16 11 30 -6z m197 8
c14 -6 11 -9 -16 -13 -41 -6 -55 -30 -17 -30 21 0 26 -5 26 -24 0 -24 -26 -54
-37 -42 -3 3 -2 6 3 6 5 0 9 11 9 24 0 18 -8 27 -32 36 -43 15 -42 26 5 38 20
5 38 10 39 11 1 1 10 -2 20 -6z m-3207 -17 c0 -17 -14 -29 -23 -20 -8 8 3 34
14 34 5 0 9 -6 9 -14z m1430 3 c0 -5 -4 -7 -10 -4 -5 3 -10 0 -10 -9 0 -8 6
-17 13 -19 8 -4 7 -6 -3 -6 -8 0 -22 4 -30 9 -13 9 -12 12 4 25 23 18 36 19
36 4z m780 7 c0 -2 -7 -7 -16 -10 -8 -3 -12 -2 -9 4 6 10 25 14 25 6z m624 -7
c-3 -6 -1 -15 6 -19 7 -5 2 -7 -14 -7 -14 0 -31 6 -38 15 -11 13 -10 15 10 10
12 -4 22 -2 22 3 0 5 5 9 11 9 5 0 7 -5 3 -11z m869 -13 c7 4 9 3 4 -1 -4 -5
3 -19 15 -32 12 -13 17 -23 12 -23 -5 0 -15 9 -22 20 -7 11 -19 20 -27 20 -16
0 -20 21 -7 34 4 4 8 1 10 -8 2 -9 9 -13 15 -10z m-3514 -7 c-16 -10 -23 -4
-14 10 3 6 11 8 17 5 6 -4 5 -9 -3 -15z m896 11 c-3 -5 -1 -10 4 -10 6 0 11 5
11 10 0 6 5 10 12 10 6 0 8 -3 5 -7 -4 -3 4 -16 18 -29 22 -21 23 -24 9 -38
-21 -22 -27 -20 -14 4 8 16 6 21 -11 31 -12 6 -24 7 -28 3 -10 -14 -48 -16
-56 -4 -4 7 2 14 14 17 12 3 21 9 21 14 0 5 5 9 11 9 5 0 7 -4 4 -10z m232 -6
c2 -6 -4 -14 -13 -18 -21 -8 -56 2 -48 15 3 5 10 7 15 4 5 -4 9 -1 9 5 0 14
32 9 37 -6z m181 -3 c3 -8 -1 -12 -9 -9 -7 2 -15 10 -17 17 -3 8 1 12 9 9 7
-2 15 -10 17 -17z m67 3 c-9 -10 -22 -13 -33 -9 -14 7 -13 9 8 15 39 12 43 11
25 -6z m196 7 c-7 -5 -13 -20 -13 -35 0 -25 -8 -33 -20 -20 -9 8 22 64 35 64
8 0 7 -3 -2 -9z m391 -13 c-5 -18 -7 -19 -10 -6 -2 9 -11 19 -20 21 -10 3 -6
5 10 6 22 1 25 -2 20 -21z m83 12 c3 -5 1 -10 -4 -10 -6 0 -11 5 -11 10 0 6 2
10 4 10 3 0 8 -4 11 -10z m428 3 c-7 -2 -13 -9 -13 -15 0 -6 6 -8 14 -5 8 3
20 -1 26 -9 18 -21 -24 -19 -50 3 -19 16 -19 18 -3 25 10 3 23 7 28 7 6 -1 4
-3 -2 -6z m-2793 -24 c0 -11 -4 -18 -10 -14 -5 3 -7 12 -3 20 7 21 13 19 13
-6z m470 -19 c0 -6 -4 -10 -10 -10 -5 0 -10 5 -10 10 0 6 -5 10 -11 10 -5 0
-7 -5 -3 -11 4 -7 1 -10 -6 -7 -7 2 -15 14 -17 26 -3 22 -2 22 27 7 17 -9 30
-20 30 -25z m671 27 c-1 -12 -15 -9 -19 4 -3 6 1 10 8 8 6 -3 11 -8 11 -12z
m169 3 c0 -5 -7 -10 -15 -10 -8 0 -15 5 -15 10 0 6 7 10 15 10 8 0 15 -4 15
-10z m679 -11 c21 -20 36 -25 27 -10 -3 5 1 14 10 21 11 10 18 10 26 2 9 -9 9
-12 0 -12 -6 0 -9 -6 -6 -14 3 -8 11 -13 18 -10 7 3 13 -2 13 -11 0 -20 -24
-19 -36 2 -8 15 -11 15 -26 3 -9 -7 -29 -14 -46 -15 -27 -2 -28 0 -14 15 21
23 19 30 -10 30 -14 0 -25 4 -25 9 0 16 49 9 69 -10z m194 9 c-4 -7 -6 -21 -5
-30 2 -11 -3 -18 -13 -18 -9 0 -14 4 -10 9 3 5 1 12 -5 16 -6 4 -5 11 3 20 15
18 41 20 30 3z m44 6 c-3 -3 -12 -4 -19 -1 -8 3 -5 6 6 6 11 1 17 -2 13 -5z
m1354 -3 c-12 -8 -11 -13 10 -30 24 -20 24 -20 1 -14 -12 3 -25 9 -27 14 -3 4
-13 5 -21 2 -14 -5 -14 -3 -3 16 8 11 23 21 34 21 16 0 17 -2 6 -9z m74 -1
c-3 -5 -12 -10 -18 -10 -7 0 -6 4 3 10 19 12 23 12 15 0z m-3975 -4 c0 -2 -9
-6 -20 -9 -11 -3 -18 -1 -14 4 5 9 34 13 34 5z m360 -6 c0 -5 -5 -10 -11 -10
-5 0 -7 5 -4 10 3 6 8 10 11 10 2 0 4 -4 4 -10z m1548 -21 c-26 -15 -22 -28
15 -44 l32 -14 -27 -1 c-16 0 -28 5 -28 11 0 6 -9 9 -19 6 -13 -3 -18 0 -15 8
3 7 -5 15 -16 18 -12 3 -19 10 -15 16 4 8 12 8 25 1 15 -8 21 -6 31 11 8 16
14 18 22 9 9 -8 8 -14 -5 -21z m212 11 c0 -11 -7 -20 -15 -20 -13 0 -13 3 -3
20 7 11 14 20 15 20 2 0 3 -9 3 -20z m643 -1 c-6 -21 -23 -26 -23 -6 0 9 -2 9
-8 1 -5 -9 -10 -8 -19 1 -10 11 -9 14 5 17 42 9 50 7 45 -13z m977 12 c0 -12
-37 -24 -50 -16 -20 12 -10 25 20 25 17 0 30 -4 30 -9z m73 2 c-7 -2 -21 -2
-30 0 -10 3 -4 5 12 5 17 0 24 -2 18 -5z m-3357 -20 c-9 -40 -19 -63 -27 -63
-5 0 -9 5 -9 11 0 6 -7 8 -16 5 -9 -3 -1 9 18 28 40 41 39 41 34 19z m218 2
c-4 -8 -12 -15 -20 -15 -8 0 -14 -4 -14 -10 0 -5 -7 -10 -15 -10 -14 0 -19
-12 -16 -32 0 -5 -7 -8 -17 -8 -10 0 -23 -5 -30 -12 -7 -7 -12 -9 -12 -5 0 4
23 30 51 57 50 49 84 65 73 35z m43 -11 c-9 -9 -28 6 -21 18 4 6 10 6 17 -1 6
-6 8 -13 4 -17z m933 16 c0 -5 -7 -10 -16 -10 -8 0 -12 5 -9 10 3 6 10 10 16
10 5 0 9 -4 9 -10z m165 0 c-3 -5 -10 -10 -16 -10 -5 0 -9 5 -9 10 0 6 7 10
16 10 8 0 12 -4 9 -10z m765 -38 c-15 -5 -51 28 -44 40 3 5 17 -1 31 -14 14
-13 19 -24 13 -26z m-2290 34 c0 -11 -13 -36 -19 -36 -4 0 -7 9 -7 20 0 11 6
20 13 20 7 0 13 -2 13 -4z m214 -11 c-4 -8 -11 -15 -16 -15 -6 0 -5 6 2 15 7
8 14 15 16 15 2 0 1 -7 -2 -15z m103 9 c-4 -4 -17 -12 -29 -18 -13 -7 -23 -17
-23 -24 0 -21 -20 -18 -23 3 -2 15 5 24 25 32 32 12 59 16 50 7z m837 -6 c-6
-10 -4 -10 8 0 10 8 19 9 22 3 9 -14 -11 -23 -34 -16 -11 4 -20 2 -20 -4 0 -6
-7 -11 -16 -11 -12 0 -11 5 7 20 27 22 44 26 33 8z m576 -3 c-7 -9 -10 -18 -7
-22 4 -3 2 -13 -5 -20 -9 -11 -9 -17 3 -24 8 -5 20 -7 27 -4 6 2 12 0 12 -5 0
-6 -5 -10 -12 -10 -6 0 -8 -3 -5 -6 3 -4 2 -15 -4 -25 -8 -16 -14 -17 -30 -9
-20 11 -39 6 -39 -11 0 -6 10 -10 23 -9 12 1 31 2 42 1 18 -2 18 -3 -5 -16
-33 -19 -34 -19 -69 11 l-31 26 -40 -18 c-43 -19 -52 -34 -20 -34 23 0 27 -15
6 -23 -17 -7 -51 28 -41 42 3 6 13 11 21 11 8 0 14 5 14 10 0 6 9 10 20 10 11
0 20 5 20 10 0 6 12 10 26 10 14 0 23 -4 19 -10 -10 -15 5 -12 22 6 9 8 22 13
29 10 7 -3 16 -1 19 4 4 6 0 11 -7 12 -7 0 -17 2 -23 3 -5 2 -14 3 -19 4 -6 0
-1 8 10 16 16 13 17 16 4 25 -10 6 -11 10 -2 10 6 0 12 6 12 14 0 8 6 17 13
19 23 10 29 7 17 -8z m656 -4 c-13 -15 -15 -24 -6 -46 6 -15 8 -30 5 -33 -8
-9 -13 1 -23 45 -8 35 -7 43 7 46 31 9 34 7 17 -12z m294 5 c22 -27 4 -75 -27
-76 -20 0 -15 18 7 25 19 6 19 8 5 28 -24 35 -12 55 15 23z m278 1 c8 3 10 -1
6 -11 -8 -21 -17 -20 -40 5 -19 22 -19 22 1 12 11 -6 26 -8 33 -6z m867 3 c-3
-5 -11 -10 -16 -10 -6 0 -7 5 -4 10 3 6 11 10 16 10 6 0 7 -4 4 -10z m-2441
-12 c-5 -8 -1 -9 12 -4 13 5 16 4 9 -3 -6 -6 -21 -7 -35 -4 -22 6 -23 7 -4 14
26 10 26 10 18 -3z m119 -2 c9 -7 17 -17 17 -21 0 -4 -7 -2 -15 5 -13 11 -18
10 -29 -6 -18 -24 -26 -16 -15 14 10 25 17 27 42 8z m267 -22 c-18 -21 -24
-10 -8 15 7 12 14 17 16 11 2 -6 -2 -17 -8 -26z m200 32 c0 -9 -30 -14 -35 -6
-4 6 3 10 14 10 12 0 21 -2 21 -4z m370 -21 c0 -16 -6 -25 -15 -25 -8 0 -15 5
-15 10 0 6 5 10 11 10 6 0 9 7 5 15 -3 8 -1 15 4 15 6 0 10 -11 10 -25z m425
15 c3 -5 1 -10 -4 -10 -6 0 -11 5 -11 10 0 6 2 10 4 10 3 0 8 -4 11 -10z m955
-1 c0 -5 -9 -14 -19 -21 -10 -6 -18 -16 -17 -22 2 -6 1 -8 -1 -3 -3 4 -11 7
-20 7 -12 0 -12 2 1 16 9 8 14 19 11 24 -2 4 7 8 20 8 14 0 25 -4 25 -9z
m-2486 -10 c-3 -6 0 -15 7 -20 11 -7 11 -9 -3 -9 -9 0 -25 -3 -35 -6 -17 -5
-17 -5 0 9 9 8 17 19 17 26 0 6 5 11 11 11 5 0 7 -5 3 -11z m1001 1 c3 -5 1
-10 -4 -10 -6 0 -11 5 -11 10 0 6 2 10 4 10 3 0 8 -4 11 -10z m589 1 c6 -10
-24 -25 -32 -16 -3 3 0 5 7 5 7 0 9 5 6 10 -3 6 -2 10 4 10 5 0 12 -4 15 -9z
m636 -6 c0 -8 -4 -15 -9 -15 -13 0 -22 16 -14 24 11 11 23 6 23 -9z m81 -2
c12 -15 12 -16 -3 -10 -10 3 -18 3 -18 -2 0 -13 -39 -20 -47 -9 -3 6 -1 8 4 5
6 -4 18 2 28 13 22 24 19 24 36 3z m59 7 c13 -8 13 -10 -2 -10 -9 0 -20 5 -23
10 -8 13 5 13 25 0z m172 -12 c-9 -9 -42 -1 -42 12 0 4 12 5 26 2 15 -3 22 -8
16 -14z m-3905 6 c-3 -3 -12 -4 -19 -1 -8 3 -5 6 6 6 11 1 17 -2 13 -5z m2868
-4 c-3 -5 -10 -10 -16 -10 -5 0 -9 5 -9 10 0 6 7 10 16 10 8 0 12 -4 9 -10z
m440 -6 c13 -14 14 -19 3 -25 -7 -5 -19 -9 -27 -9 -11 0 -11 3 0 17 10 11 10
14 2 9 -13 -7 -18 6 -6 17 9 9 9 9 28 -9z m120 -14 c-5 -8 -11 -8 -17 -2 -6 6
-7 16 -3 22 5 8 11 8 17 2 6 -6 7 -16 3 -22z m-3205 16 c0 -2 -7 -7 -16 -10
-8 -3 -12 -2 -9 4 6 10 25 14 25 6z m1085 -26 c-5 -8 -11 -8 -21 1 -12 10 -12
14 -2 20 16 10 33 -5 23 -21z m995 16 c0 -9 -9 -14 -21 -13 -19 1 -19 2 -3 14
22 16 24 16 24 -1z m275 4 c3 -5 0 -7 -8 -4 -8 3 -18 0 -22 -5 -3 -6 -11 -8
-17 -5 -6 4 -5 10 3 15 19 12 36 11 44 -1z m442 -11 c1 -15 -2 -19 -13 -15 -9
3 -20 6 -25 6 -19 0 -8 19 14 23 12 2 22 5 22 6 1 0 1 -8 2 -20z m169 6 c4
-11 11 -12 24 -5 19 10 30 4 30 -16 0 -7 -8 -10 -20 -7 -11 3 -20 0 -20 -6 0
-21 -20 -11 -26 13 -3 14 -13 27 -22 29 -12 3 -10 5 6 6 12 0 25 -6 28 -14z
m860 0 c14 -13 14 -15 0 -15 -9 0 -16 4 -16 9 0 5 -8 12 -17 14 -17 4 -17 5 0
6 10 0 25 -6 33 -14z m-3290 -11 c-3 -9 -6 -20 -6 -26 0 -6 -10 -8 -25 -4 -24
6 -31 -1 -26 -28 1 -4 -3 -14 -9 -21 -8 -10 -7 -14 2 -17 7 -3 1 -7 -14 -10
-27 -5 -38 5 -18 17 13 8 13 35 -1 35 -6 0 -13 -9 -16 -20 -3 -11 -10 -20 -15
-20 -6 0 -8 9 -5 20 3 13 0 20 -9 20 -8 0 -14 -5 -14 -11 0 -5 -5 -7 -11 -4
-7 5 -3 14 10 27 12 10 25 17 30 13 12 -7 42 5 36 15 -8 13 39 20 48 7 6 -9
11 -8 20 6 15 21 31 23 23 1z m714 8 c0 -17 -38 -44 -45 -32 -5 8 -11 8 -21
-1 -8 -6 -17 -9 -20 -6 -3 3 11 15 33 26 42 22 53 25 53 13z m630 -10 c-1 -13
-30 -46 -35 -40 -9 8 17 58 26 52 5 -3 9 -8 9 -12z m30 14 c0 -3 -4 -8 -10
-11 -5 -3 -10 -1 -10 4 0 6 5 11 10 11 6 0 10 -2 10 -4z m40 -12 c0 -8 -4 -12
-10 -9 -5 3 -10 10 -10 16 0 5 5 9 10 9 6 0 10 -7 10 -16z m960 12 c0 -11 -19
-15 -25 -6 -3 5 1 10 9 10 9 0 16 -2 16 -4z m567 -13 c-9 -9 -20 -13 -24 -9
-4 4 -1 11 7 16 25 16 35 11 17 -7z m-3542 -4 c11 -17 -1 -21 -15 -4 -8 9 -8
15 -2 15 6 0 14 -5 17 -11z m199 2 c11 -16 -6 -41 -27 -41 -19 0 -19 1 -4 18
10 10 14 22 10 25 -3 4 -1 7 5 7 6 0 13 -4 16 -9z m1886 -1 c0 -5 -5 -10 -11
-10 -5 0 -7 5 -4 10 3 6 8 10 11 10 2 0 4 -4 4 -10z m230 -22 c0 -5 -9 -8 -20
-8 -11 0 -20 2 -20 4 0 2 -3 11 -6 20 -5 13 -2 13 20 3 14 -7 26 -15 26 -19z
m466 23 c23 19 26 4 4 -22 -19 -23 -21 -23 -34 -6 -7 9 -21 17 -30 17 -10 0
-15 4 -11 10 4 6 15 6 32 -1 18 -6 30 -6 39 2z m-2434 -21 c21 -20 21 -20 2
-35 -25 -19 -40 -19 -48 0 -3 8 0 14 6 12 6 -1 13 4 15 11 3 6 0 12 -7 12 -6
0 -8 5 -5 10 9 14 13 13 37 -10z m1228 10 c0 -5 -5 -10 -11 -10 -5 0 -7 5 -4
10 3 6 8 10 11 10 2 0 4 -4 4 -10z m249 -5 c-6 -6 -1 -13 13 -21 l21 -11 -23
-13 c-20 -10 -22 -10 -17 3 6 15 -10 37 -26 37 -5 0 -7 -11 -5 -24 4 -17 1
-23 -9 -19 -28 11 -1 61 33 59 15 -1 20 -4 13 -11z m573 -7 c-7 -7 -12 -8 -12
-2 0 14 12 26 19 19 2 -3 -1 -11 -7 -17z m201 16 c-7 -3 -10 -11 -7 -18 4 -11
-8 -12 -65 -7 -28 2 23 30 54 30 17 0 25 -3 18 -5z m646 -23 c-15 -5 -22 6
-14 19 6 9 10 9 16 -1 5 -8 4 -15 -2 -18z m415 6 c10 -4 16 -10 12 -14 -9 -9
-56 18 -49 30 3 5 8 6 12 0 3 -5 15 -13 25 -16z m-3034 4 c0 -6 -4 -13 -10
-16 -5 -3 -10 1 -10 9 0 9 5 16 10 16 6 0 10 -4 10 -9z m50 0 c0 -5 -7 -11
-15 -15 -15 -5 -20 5 -8 17 9 10 23 9 23 -2z m1212 -6 c0 -5 -5 -11 -11 -13
-6 -2 -11 4 -11 13 0 9 5 15 11 13 6 -2 11 -8 11 -13z m238 6 c0 -12 -20 -25
-27 -18 -7 7 6 27 18 27 5 0 9 -4 9 -9z m58 -16 c-3 -13 -1 -22 3 -19 5 3 9
-2 9 -10 0 -18 -16 -21 -26 -5 -3 6 -19 9 -35 5 -39 -7 -37 9 2 23 17 6 28 15
24 21 -3 5 1 10 11 10 12 0 15 -6 12 -25z m317 6 c-3 -6 -11 -8 -17 -5 -6 4
-5 9 3 15 16 10 23 4 14 -10z m405 -1 c9 -17 7 -19 -18 -17 -25 2 -27 4 -18
20 14 22 23 22 36 -3z m53 14 c-7 -3 -9 -12 -6 -20 4 -10 0 -12 -11 -8 -27 10
-14 32 19 32 6 0 5 -2 -2 -4z m772 -4 c3 -5 -1 -10 -10 -10 -9 0 -13 5 -10 10
3 6 8 10 10 10 2 0 7 -4 10 -10z m-3605 -10 c0 -5 -7 -10 -16 -10 -8 0 -12 5
-9 10 3 6 10 10 16 10 5 0 9 -4 9 -10z m1400 -5 c0 -8 0 -18 1 -22 0 -4 -4 -9
-9 -11 -11 -3 -23 34 -14 42 10 11 22 6 22 -9z m1490 5 c0 -5 -2 -10 -4 -10
-3 0 -8 5 -11 10 -3 6 -1 10 4 10 6 0 11 -4 11 -10z m110 0 c0 -5 -2 -10 -4
-10 -3 0 -8 5 -11 10 -3 6 -1 10 4 10 6 0 11 -4 11 -10z m165 1 c3 -5 1 -12
-5 -16 -5 -3 -10 1 -10 9 0 18 6 21 15 7z m315 -21 c0 -18 -19 -11 -30 11 -11
19 -10 20 9 9 12 -6 21 -15 21 -20z m243 24 c9 -9 -3 -34 -17 -34 -6 0 -12 9
-12 20 0 19 16 27 29 14z m87 -4 c0 -5 -7 -10 -16 -10 -8 0 -12 5 -9 10 3 6
10 10 16 10 5 0 9 -4 9 -10z m-3235 -9 c3 -6 -11 -21 -31 -34 -21 -15 -31 -28
-25 -32 6 -3 11 -16 11 -28 0 -16 3 -18 9 -8 5 7 6 22 4 32 -4 13 0 19 12 19
14 0 15 -6 10 -32 -4 -18 -8 -34 -10 -36 -1 -1 -20 2 -41 7 -21 5 -31 9 -21
10 19 1 23 16 6 26 -6 4 -8 13 -5 20 3 8 0 16 -7 19 -7 2 -3 5 8 5 17 1 18 3
5 12 -12 8 -11 9 6 4 13 -3 26 1 34 10 14 17 26 19 35 6z m772 -18 c-8 -7 -37
9 -31 19 3 5 12 4 20 -3 8 -6 13 -14 11 -16z m101 9 c2 -7 -2 -10 -12 -6 -9 3
-16 11 -16 16 0 13 23 5 28 -10z m467 -11 c-6 -5 -25 10 -25 20 0 5 6 4 14 -3
8 -7 12 -15 11 -17z m388 23 c9 -9 -19 -34 -37 -34 -8 0 -18 -5 -21 -10 -4 -6
-11 -7 -17 -4 -8 5 -9 1 -5 -10 4 -10 7 -22 7 -28 0 -6 7 -8 15 -5 8 4 17 2
20 -3 8 -13 -12 -12 -51 2 -30 11 -58 41 -33 35 6 -1 16 7 22 18 7 11 13 22
15 25 2 2 7 -1 11 -9 7 -11 12 -11 30 0 11 8 21 17 21 21 0 10 14 10 23 2z
m325 -35 c-25 -6 -33 3 -24 28 6 14 9 14 27 -3 l21 -19 -24 -6z m52 31 c0 -5
-4 -10 -10 -10 -5 0 -10 5 -10 10 0 6 5 10 10 10 6 0 10 -4 10 -10z m390 6 c0
-11 -19 -15 -25 -6 -3 5 1 10 9 10 9 0 16 -2 16 -4z m190 -6 c-20 -13 -40 -13
-40 0 0 6 12 10 28 10 21 0 24 -2 12 -10z m-3170 -9 c0 -9 -24 -21 -43 -21 -6
0 -2 7 9 15 22 17 34 19 34 6z m1758 -3 c7 -7 12 -20 12 -30 0 -16 -3 -16 -20
-6 -14 9 -16 14 -7 20 9 6 8 10 -3 18 -8 5 -10 10 -4 10 5 0 15 -5 22 -12z
m1245 -16 c-3 -12 -9 -19 -14 -16 -5 3 -3 14 3 24 15 24 19 21 11 -8z m95 11
c0 -10 1 -24 3 -32 2 -7 -2 -16 -8 -18 -7 -3 -13 2 -13 11 0 9 -6 13 -14 10
-8 -3 -17 0 -22 7 -5 9 -2 10 9 6 11 -4 22 1 29 13 16 24 17 25 16 3z m-3028
0 c-1 -11 -68 -42 -75 -35 -10 10 29 42 52 42 12 0 23 -3 23 -7z m105 -2 c3
-5 1 -12 -5 -16 -5 -3 -10 1 -10 9 0 18 6 21 15 7z m1365 -6 c0 -8 -7 -15 -15
-15 -16 0 -20 12 -8 23 11 12 23 8 23 -8z m2020 -9 c0 -2 -9 -2 -20 1 -11 3
-20 9 -20 15 0 5 9 4 20 -2 11 -6 20 -12 20 -14z m-1536 -2 c4 -10 1 -14 -6
-12 -15 5 -23 28 -10 28 5 0 13 -7 16 -16z m426 12 c0 -2 -7 -7 -16 -10 -8 -3
-12 -2 -9 4 6 10 25 14 25 6z m266 -12 c-9 -8 -20 -13 -25 -10 -5 4 -11 1 -13
-6 -2 -6 -10 -8 -16 -4 -21 13 -13 25 21 29 17 2 36 5 40 5 5 1 1 -5 -7 -14z
m114 6 c0 -5 -4 -10 -9 -10 -6 0 -13 5 -16 10 -3 6 1 10 9 10 9 0 16 -4 16
-10z m-2452 -24 c10 -23 8 -26 -18 -39 -28 -14 -40 -13 -40 5 0 4 9 8 20 8 22
0 26 20 8 38 -9 9 -9 12 3 12 9 0 21 -11 27 -24z m822 -18 c-25 -20 -47 -23
-70 -8 -12 8 -9 10 13 10 16 0 26 4 22 10 -3 6 3 10 14 10 11 0 23 5 27 12 6
9 9 9 12 -2 3 -7 -5 -22 -18 -32z m78 30 c-6 -18 -28 -21 -28 -4 0 9 7 16 16
16 9 0 14 -5 12 -12z m667 2 c3 -5 -1 -10 -10 -10 -9 0 -13 5 -10 10 3 6 8 10
10 10 2 0 7 -4 10 -10z m300 2 c13 -10 18 -42 6 -42 -5 0 -12 6 -15 13 -5 10
-7 10 -12 0 -7 -17 -24 -17 -24 0 0 13 19 37 30 37 3 0 10 -4 15 -8z m545 -2
c0 -5 -4 -10 -10 -10 -5 0 -10 5 -10 10 0 6 5 10 10 10 6 0 10 -4 10 -10z
m878 -8 c2 -7 -2 -10 -12 -6 -9 3 -16 11 -16 16 0 13 23 5 28 -10z m-1757 -10
c15 -17 15 -20 -2 -30 -24 -16 -29 -15 -29 3 0 8 5 15 11 15 8 0 8 5 -1 15 -7
8 -8 15 -3 15 5 0 16 -8 24 -18z m692 11 c3 -5 -10 -8 -29 -9 -21 0 -30 3 -22
8 16 10 45 10 51 1z m801 -8 c-7 -18 7 -20 24 -3 8 8 12 8 12 1 0 -18 -28 -23
-55 -11 -19 8 -28 8 -40 -2 -8 -7 -18 -10 -22 -6 -3 3 -1 6 6 6 7 0 10 4 7 9
-7 11 10 19 46 20 20 1 26 -3 22 -14z m243 -14 c43 -17 33 -39 -18 -39 -36 -1
-39 1 -27 15 10 12 10 17 1 20 -7 2 -9 11 -6 19 3 9 9 12 12 7 3 -5 20 -15 38
-22z m-3127 9 c0 -5 -4 -10 -10 -10 -5 0 -10 5 -10 10 0 6 5 10 10 10 6 0 10
-4 10 -10z m879 -11 c-15 -9 -32 -2 -24 11 3 5 13 6 21 3 12 -4 13 -8 3 -14z
m191 11 c0 -5 -4 -10 -9 -10 -6 0 -13 5 -16 10 -3 6 1 10 9 10 9 0 16 -4 16
-10z m775 0 c3 -5 -3 -10 -14 -10 -12 0 -21 5 -21 10 0 6 6 10 14 10 8 0 18
-4 21 -10z m412 2 c14 -9 33 -56 33 -83 0 -24 -20 -26 -20 -1 -1 22 -26 56
-37 49 -5 -3 -15 -2 -23 3 -11 7 -11 11 -1 24 15 17 29 20 48 8z m-2837 -9
c-1 -16 -30 -46 -37 -38 -5 4 -3 10 4 12 7 2 9 11 6 19 -3 8 1 14 11 14 9 0
16 -3 16 -7z m135 -2 c3 -5 1 -12 -4 -15 -5 -3 -11 1 -15 9 -6 16 9 21 19 6z
m105 -2 c0 -6 7 -8 16 -5 12 5 15 2 10 -10 -3 -8 -6 -18 -6 -20 0 -2 -4 -4
-10 -4 -5 0 -10 7 -10 15 0 8 -9 15 -20 15 -11 0 -20 5 -20 10 0 6 9 10 20 10
11 0 20 -5 20 -11z m875 1 c3 -5 -3 -10 -14 -10 -12 0 -21 5 -21 10 0 6 6 10
14 10 8 0 18 -4 21 -10z m1015 4 c0 -3 -6 -12 -14 -20 -11 -10 -17 -11 -22 -3
-3 6 0 15 7 20 16 10 29 12 29 3z m380 -4 c0 -5 -6 -10 -14 -10 -8 0 -16 -7
-20 -15 -8 -22 -25 -18 -19 4 3 11 15 22 27 24 11 2 22 5 24 6 1 0 2 -3 2 -9z
m80 -5 c0 -8 -4 -15 -9 -15 -13 0 -22 16 -14 24 11 11 23 6 23 -9z m500 5 c0
-5 -4 -10 -10 -10 -5 0 -10 5 -10 10 0 6 5 10 10 10 6 0 10 -4 10 -10z m503
-26 c-2 -7 4 -14 14 -17 15 -4 14 -5 -4 -6 -12 0 -25 4 -28 10 -4 6 -13 8 -21
5 -7 -3 -16 -1 -19 4 -4 6 1 10 10 10 10 0 15 5 12 14 -4 11 -1 11 18 2 12 -5
21 -16 18 -22z m-1557 -1 c-7 -7 -26 7 -26 19 0 6 6 6 15 -2 9 -7 13 -15 11
-17z m338 16 c-3 -6 -1 -14 5 -18 6 -4 9 -15 5 -24 -7 -19 -39 -23 -49 -7 -3
6 1 10 9 10 20 0 21 16 1 24 -24 9 -17 26 11 26 16 0 23 -4 18 -11z m866 3 c0
-13 -12 -22 -22 -16 -10 6 -1 24 13 24 5 0 9 -4 9 -8z m40 -12 c0 -11 -4 -20
-10 -20 -5 0 -10 9 -10 20 0 11 5 20 10 20 6 0 10 -9 10 -20z m-1594 1 c-7
-11 -46 -21 -46 -12 0 13 13 21 32 21 11 0 17 -4 14 -9z m943 -18 c12 -24 6
-29 -18 -14 -8 5 -11 16 -7 26 7 20 8 19 25 -12z m526 16 c10 -15 -1 -23 -20
-15 -9 3 -13 10 -10 16 8 13 22 13 30 -1z m-865 -17 c0 -10 -3 -22 -7 -25 -10
-11 -32 13 -26 29 8 20 33 17 33 -4z m1180 8 c0 -5 -4 -10 -9 -10 -6 0 -13 5
-16 10 -3 6 1 10 9 10 9 0 16 -4 16 -10z m-3244 -12 c4 -6 2 -14 -4 -16 -7 -2
-10 -8 -6 -13 3 -5 1 -9 -5 -9 -12 0 -20 21 -13 38 5 15 19 16 28 0z m114 -8
c0 -4 -7 -13 -15 -20 -11 -10 -18 -9 -30 4 -15 14 -18 14 -32 1 -8 -9 -18 -14
-21 -11 -2 3 5 14 18 24 22 18 80 19 80 2z m880 6 c0 -8 -5 -18 -10 -21 -13
-8 -42 14 -34 26 9 15 44 10 44 -5z m225 4 c3 -5 1 -10 -4 -10 -6 0 -11 5 -11
10 0 6 2 10 4 10 3 0 8 -4 11 -10z m1805 -7 c11 -4 9 -7 -8 -14 -21 -8 -52 6
-52 24 0 5 32 0 60 -10z m133 -3 c-4 -16 -7 -17 -19 -5 -19 18 -18 25 5 25 14
0 18 -5 14 -20z m-2948 0 c3 -5 3 -15 -1 -21 -6 -11 -23 6 -24 24 0 10 18 9
25 -3z m409 -29 c-5 -6 -34 20 -34 30 0 5 8 1 18 -8 10 -10 17 -20 16 -22z
m1611 19 c8 0 19 -9 25 -20 11 -20 -3 -30 -14 -11 -3 5 -15 7 -26 4 -21 -6
-25 3 -13 33 4 11 8 13 11 6 2 -7 10 -12 17 -12z m139 -10 c11 -24 12 -30 1
-30 -7 0 -18 7 -25 15 -8 10 -9 15 -2 15 6 0 9 7 6 15 -11 27 4 16 20 -15z
m590 4 c3 -9 6 -18 6 -20 0 -9 -22 -3 -36 10 -11 11 -11 16 -1 19 20 9 25 8
31 -9z m-2274 -4 c0 -5 -4 -10 -10 -10 -5 0 -10 5 -10 10 0 6 5 10 10 10 6 0
10 -4 10 -10z m494 -2 c-7 -10 -24 -10 -24 0 0 5 7 9 15 9 8 0 12 -4 9 -9z
m493 -20 c-3 -7 -5 -2 -5 12 0 14 2 19 5 13 2 -7 2 -19 0 -25z m313 22 c0 -13
-11 -13 -30 0 -12 8 -11 10 8 10 12 0 22 -4 22 -10z m320 1 c0 -16 -28 -20
-34 -5 -4 9 1 14 14 14 11 0 20 -4 20 -9z m800 -1 c0 -5 7 -10 15 -10 8 0 15
-4 15 -10 0 -13 -6 -13 -31 0 -20 11 -26 30 -9 30 6 0 10 -4 10 -10z m288 -15
c7 -15 8 -25 2 -25 -6 0 -10 7 -10 15 0 7 -8 19 -17 24 -15 9 -16 10 -2 11 9
0 21 -11 27 -25z m98 13 c4 -7 4 -10 -1 -6 -4 4 -14 1 -22 -7 -8 -8 -20 -15
-26 -14 -9 0 -8 2 1 6 6 2 12 11 12 19 0 17 26 19 36 2z m-2911 -8 c3 -5 -1
-10 -10 -10 -9 0 -13 5 -10 10 3 6 8 10 10 10 2 0 7 -4 10 -10z m1055 0 c0 -5
-2 -10 -4 -10 -3 0 -8 5 -11 10 -3 6 -1 10 4 10 6 0 11 -4 11 -10z m1185 0 c3
-6 -1 -10 -9 -10 -8 0 -18 5 -21 10 -3 6 1 10 9 10 8 0 18 -4 21 -10z m-2095
-10 c0 -5 -2 -10 -4 -10 -3 0 -8 5 -11 10 -3 6 -1 10 4 10 6 0 11 -4 11 -10z
m416 -17 c-10 -10 -19 5 -10 18 6 11 8 11 12 0 2 -7 1 -15 -2 -18z m1454 17
c0 -5 -4 -10 -10 -10 -5 0 -10 5 -10 10 0 6 5 10 10 10 6 0 10 -4 10 -10z
m754 -11 c-3 -5 -10 -7 -15 -3 -5 3 -7 10 -3 15 3 5 10 7 15 3 5 -3 7 -10 3
-15z m-2559 1 c3 -5 1 -10 -4 -10 -6 0 -11 5 -11 10 0 6 2 10 4 10 3 0 8 -4
11 -10z m2445 0 c0 -5 -4 -10 -10 -10 -5 0 -10 5 -10 10 0 6 5 10 10 10 6 0
10 -4 10 -10z"/>
<path d="M365 610 c-3 -5 -1 -10 4 -10 6 0 11 5 11 10 0 6 -2 10 -4 10 -3 0
-8 -4 -11 -10z"/>
<path d="M700 516 c0 -8 -6 -17 -12 -20 -7 -3 -4 -5 7 -3 20 2 35 37 16 37 -6
0 -11 -6 -11 -14z"/>
<path d="M2485 550 c-3 -5 -1 -10 4 -10 6 0 11 5 11 10 0 6 -2 10 -4 10 -3 0
-8 -4 -11 -10z"/>
<path d="M1010 450 c0 -5 5 -10 10 -10 6 0 10 5 10 10 0 6 -4 10 -10 10 -5 0
-10 -4 -10 -10z"/>
<path d="M1080 400 c-9 -6 -10 -10 -3 -10 6 0 15 5 18 10 8 12 4 12 -15 0z"/>
<path d="M1464 323 c-9 -14 -6 -23 11 -42 16 -16 25 -20 30 -11 4 7 1 16 -6
21 -10 6 -7 9 11 9 18 0 21 3 11 9 -7 5 -10 14 -7 20 5 7 -2 11 -16 11 -13 0
-28 -8 -34 -17z"/>
<path d="M3495 340 c-3 -5 -1 -10 4 -10 6 0 11 5 11 10 0 6 -2 10 -4 10 -3 0
-8 -4 -11 -10z"/>
<path d="M4065 310 c3 -5 11 -10 16 -10 6 0 7 5 4 10 -3 6 -11 10 -16 10 -6 0
-7 -4 -4 -10z"/>
<path d="M37 429 c7 -7 15 -10 18 -7 3 3 -2 9 -12 12 -14 6 -15 5 -6 -5z"/>
<path d="M215 320 c-3 -5 1 -10 10 -10 9 0 13 5 10 10 -3 6 -8 10 -10 10 -2 0
-7 -4 -10 -10z"/>
<path d="M65 307 c-18 -14 -13 -38 8 -36 7 0 6 3 -2 6 -11 4 -8 10 10 24 27
21 13 26 -16 6z"/>
<path d="M0 285 c0 -8 8 -15 18 -14 10 0 12 3 4 6 -6 2 -10 9 -6 14 3 5 0 9
-5 9 -6 0 -11 -7 -11 -15z"/>
<path d="M100 250 c-12 -8 -10 -10 8 -10 13 0 20 4 17 10 -7 12 -6 12 -25 0z"/>
<path d="M40 239 c0 -5 5 -7 10 -4 6 3 10 8 10 11 0 2 -4 4 -10 4 -5 0 -10 -5
-10 -11z"/>
<path d="M300 230 c0 -5 4 -10 9 -10 6 0 13 5 16 10 3 6 -1 10 -9 10 -9 0 -16
-4 -16 -10z"/>
<path d="M190 219 c0 -5 5 -7 10 -4 6 3 10 8 10 11 0 2 -4 4 -10 4 -5 0 -10
-5 -10 -11z"/>
<path d="M230 220 c0 -5 5 -10 10 -10 6 0 10 5 10 10 0 6 -4 10 -10 10 -5 0
-10 -4 -10 -10z"/>
<path d="M2015 191 c-3 -6 -2 -18 3 -27 7 -13 10 -13 20 -1 10 11 9 17 -2 26
-10 8 -16 9 -21 2z"/>
<path d="M1800 179 c0 -5 5 -7 10 -4 6 3 10 8 10 11 0 2 -4 4 -10 4 -5 0 -10
-5 -10 -11z"/>
<path d="M1975 160 c3 -5 14 -10 23 -10 15 0 15 2 2 10 -20 13 -33 13 -25 0z"/>
<path d="M158 153 c7 -3 16 -2 19 1 4 3 -2 6 -13 5 -11 0 -14 -3 -6 -6z"/>
<path d="M2750 130 c0 -5 5 -10 10 -10 6 0 10 5 10 10 0 6 -4 10 -10 10 -5 0
-10 -4 -10 -10z"/>
<path d="M410 119 c0 -5 5 -7 10 -4 6 3 10 8 10 11 0 2 -4 4 -10 4 -5 0 -10
-5 -10 -11z"/>
<path d="M568 123 c7 -3 16 -2 19 1 4 3 -2 6 -13 5 -11 0 -14 -3 -6 -6z"/>
<path d="M505 110 c-3 -5 -1 -10 4 -10 6 0 11 5 11 10 0 6 -2 10 -4 10 -3 0
-8 -4 -11 -10z"/>
<path d="M80 85 c14 -7 27 -11 30 -9 6 7 -22 24 -40 23 -9 0 -5 -6 10 -14z"/>
<path d="M503 74 c-10 -7 -13 -14 -6 -14 6 0 14 4 17 9 3 5 15 7 26 4 11 -3
20 -3 20 0 0 12 -41 13 -57 1z"/>
<path d="M545 40 c-6 -9 1 -14 18 -11 4 0 7 -3 7 -9 0 -5 4 -10 9 -10 6 0 9 9
8 20 -1 21 -31 28 -42 10z"/>
<path d="M2607 25 l-27 -24 35 1 c38 1 53 12 34 24 -8 5 -9 3 -4 -6 5 -9 4
-11 -4 -6 -9 6 -9 11 0 22 19 23 -4 15 -34 -11z"/>
<path d="M625 21 c-3 -5 -1 -12 4 -15 5 -3 11 1 15 9 6 16 -9 21 -19 6z"/>
<path d="M2480 21 c0 -9 52 -22 60 -15 7 7 -23 24 -42 24 -10 0 -18 -4 -18 -9z"/>
<path d="M2255 10 c-3 -5 3 -10 15 -10 12 0 18 5 15 10 -3 6 -10 10 -15 10 -5
0 -12 -4 -15 -10z"/>
</g>
</svg>
